<?xml version="1.0" encoding="UTF-8"?>
<svg id="Layer_2" xmlns="http://www.w3.org/2000/svg" xmlns:xlink="http://www.w3.org/1999/xlink" viewBox="0 0 402.97 350.68">
  <defs>
    <style>
      .cls-1, .cls-2 {
        fill: #254e58;
      }

      .cls-2 {
        isolation: isolate;
      }

      .cls-3 {
        fill: #f5f6e7;
      }

      .cls-4 {
        clip-path: url(#clippath);
      }
    </style>
    <clipPath id="clippath">
      <circle class="cls-3" cx="175.34" cy="175.34" r="175.34"/>
    </clipPath>
  </defs>
  <g id="Layer_1-2" data-name="Layer_1">
    <g>
      <circle class="cls-3" cx="175.34" cy="175.34" r="175.34"/>
      <g class="cls-4">
        <g id="Layer_1-2">
          <g>
            <path class="cls-2" d="M335.84,247.61c-24.25,0-42.26-8.14-53.55-24.19-9-12.81-13.57-30.26-13.57-51.86s4.01-42.63,11-58.49c8.94-20.28,22.43-31,39.01-31s38.15,11.54,56.03,30.86c17.39,18.79,28.2,41.26,28.2,58.63v.5c-.14,18.04-7.28,36.75-19.64,51.39-13.14,15.58-30.01,24.15-47.49,24.15ZM318.74,83.07c-38.77,0-49.02,57.88-49.02,88.49,0,21.39,4.5,38.65,13.39,51.28,11.09,15.77,28.83,23.76,52.73,23.76,17.18,0,33.78-8.45,46.72-23.8,12.32-14.61,19.39-33.29,19.39-51.25v-.5c-.2-17.06-10.86-39.02-27.92-57.45-17.7-19.12-38.37-30.54-55.29-30.54Z"/>
            <path class="cls-2" d="M181.09,247.61c-17.48,0-34.35-8.58-47.49-24.15-12.47-14.79-19.63-33.7-19.63-51.89s10.81-39.83,28.2-58.63c17.88-19.32,38.83-30.85,56.03-30.85s30.07,10.72,39.01,30.99c6.99,15.86,11,37.18,11,58.49s-4.57,39.05-13.57,51.86c-11.28,16.05-29.3,24.19-53.55,24.19ZM198.2,83.08c-16.93,0-37.6,11.41-55.29,30.53-17.23,18.62-27.93,40.82-27.93,57.95s7.07,36.64,19.39,51.25c12.95,15.35,29.54,23.8,46.72,23.8,23.9,0,41.64-8,52.73-23.76,8.88-12.64,13.39-29.89,13.39-51.28s-3.98-42.35-10.91-58.09c-6.11-13.87-17.68-30.39-38.09-30.39Z"/>
            <path class="cls-2" d="M190.99,301.79c-10.96,0-20.47-3.32-26.49-9.33-7.33-7.33-11.04-19.07-10.16-32.2,1.38-20.61,13.75-41.26,33.93-56.65h0c16.77-12.78,39.06-15.98,58.66-17.43l.54-.04v.68c0,6.05,4.92,10.97,10.97,10.97s10.92-4.89,10.97-10.9h1c-.06,39.82-5.03,65.59-15.17,78.79-16.5,21.44-38.59,34.56-60.62,36-1.22.08-2.44.12-3.63.12ZM188.87,204.41c-19.94,15.21-32.16,35.59-33.53,55.91-.86,12.84,2.74,24.3,9.87,31.43,6.47,6.46,17.17,9.73,29.35,8.92,21.74-1.41,43.57-14.39,59.89-35.61,13.51-17.56,14.81-55.68,14.95-73.44-1.86,4.21-6.08,7.16-10.95,7.16-6.47,0-11.75-5.16-11.96-11.57-19.33,1.46-41.2,4.69-57.61,17.2h0Z"/>
            <g>
              <path class="cls-1" d="M247.52,186.74h-1v-1.31h.5l.04.47.5.02-.03.5c0,.11,0,.21,0,.32Z"/>
              <path class="cls-1" d="M325.93,301.79c-1.19,0-2.4-.04-3.63-.12-22.03-1.43-44.12-14.55-60.62-36-10.15-13.2-15.12-38.97-15.17-78.78h1c.05,6,4.97,10.89,10.97,10.89s10.97-4.92,10.97-10.97v-.68l.54.04c19.6,1.45,41.89,4.65,58.66,17.43h0c20.18,15.39,32.55,36.03,33.93,56.65.88,13.13-2.82,24.87-10.16,32.2-6.02,6.01-15.53,9.33-26.49,9.33ZM247.54,191.65c.67,54.85,11.36,68.75,14.94,73.41,16.32,21.21,38.15,34.19,59.89,35.61,12.18.8,22.88-2.46,29.35-8.92,7.13-7.13,10.73-18.58,9.86-31.43-1.36-20.32-13.58-40.7-33.53-55.91h0c-16.41-12.51-38.28-15.74-57.61-17.2-.21,6.42-5.5,11.57-11.96,11.57-4.86,0-9.07-2.93-10.94-7.13Z"/>
            </g>
            <path class="cls-2" d="M247.53,186.56l-.51-.05c-19.09-1.97-33.42-9.06-41.42-20.49-8.19-11.69-9.82-27.64-4.86-47.42,11.03-43.89,31.39-68.06,57.34-68.06.14,0,.21,0,.28.01.04,0,.08,0,.12,0,.08,0,.21-.02.33-.02,25.95,0,46.27,24.03,57.31,67.69h0l.1.38c4.96,19.76,3.33,35.71-4.85,47.4-8,11.43-22.31,18.52-41.39,20.49l-.51.05-.04-.52c-.4-5.71-5.21-10.19-10.93-10.19s-10.53,4.48-10.93,10.2l-.04.52ZM258.15,51.54c-25.52,0-45.54,23.9-56.44,67.31-4.89,19.48-3.31,35.15,4.71,46.6,7.77,11.09,21.66,18.01,40.2,20.02.68-5.99,5.81-10.61,11.88-10.61s11.2,4.62,11.88,10.6c18.53-2.02,32.41-8.93,40.17-20.02,7.96-11.37,9.57-26.92,4.79-46.23l-.1-.36c-10.89-43.4-30.91-67.31-56.36-67.31-.17,0-.26,0-.36.02-.11,0-.18,0-.25,0-.04,0-.08,0-.12,0Z"/>
          </g>
        </g>
        <path class="cls-1" d="M300.36,157.44c-2.28-5.51-5.47-10.32-9.58-14.43-4.11-4.1-8.91-7.3-14.43-9.58-5.52-2.28-11.46-3.42-17.85-3.42s-12.33,1.14-17.85,3.42c-5.51,2.28-10.32,5.47-14.43,9.58-4.1,4.11-7.3,8.91-9.57,14.43-.38.91-.68,1.86-.99,2.79.02-.07.03-.13.06-.2l-.23.7c-.13.39-.27.78-.39,1.18l-15.17,45.72h-.75l-30.34-75.86h-9.08l10.82,26.86-19.9,49.25h-.75l-30.4-75.93v-.18H46.91v6.34l24.38-3.11c3.89-.5,6.47-.74,7.71-.74v84.57h8.46v-84.57c1.24,0,3.81.25,7.71.74l17.43,2.22,33.62,83.34h2.74l23.38-57.83,23.26,57.83h2.73l15.45-38.31c.53,3.79,1.46,7.44,2.89,10.89,2.28,5.52,5.47,10.32,9.57,14.43,4.11,4.11,8.91,7.3,14.43,9.58,5.51,2.28,11.46,3.42,17.85,3.42s12.33-1.14,17.85-3.42c5.51-2.28,10.32-5.47,14.43-9.58,4.1-4.1,7.3-8.91,9.58-14.43,2.28-5.51,3.42-11.46,3.42-17.85s-1.14-12.33-3.42-17.85ZM289.85,197.43c-2.99,6.39-7.17,11.34-12.56,14.86-5.39,3.53-11.65,5.29-18.78,5.29s-13.39-1.76-18.78-5.29c-5.39-3.52-9.58-8.46-12.56-14.8-2.98-6.34-4.48-13.74-4.48-22.2s1.51-15.86,4.54-22.2c3.03-6.34,7.21-11.27,12.56-14.8,5.35-3.52,11.59-5.29,18.72-5.29s13.39,1.78,18.78,5.35c5.39,3.57,9.57,8.52,12.56,14.86,2.99,6.34,4.48,13.7,4.48,22.08s-1.49,15.75-4.48,22.14Z"/>
      </g>
    </g>
  </g>
</svg>