<?xml version="1.0" encoding="UTF-8"?>
<svg id="Layer_2" xmlns="http://www.w3.org/2000/svg" viewBox="0 0 248.15 216">
  <defs>
    
  </defs>
  <g id="Layer_1-2" data-name="Layer_1">
    <g>
      <path class="cls-2" d="M246.87,104.06c0-31.38-40.03-75.89-71.4-75.89-4.67,0-8.87.99-12.66,2.76C153.73,12.88,140.94,1.28,124.43,1.28h-.06c-.09,0-.19,0-.28.02-.09,0-.19-.02-.28-.02h-.06c-16.52,0-29.3,11.6-38.4,29.66-3.79-1.77-7.99-2.76-12.66-2.76-31.39,0-71.41,44.5-71.41,75.88,0,24.72,15.8,50.48,37.84,60.3-6.51,17.36-3.51,33.89,5.12,42.52,14.16,14.16,51.05,10.59,76.74-22.8,1.13-1.47,2.16-3.1,3.1-4.87.94,1.77,1.97,3.4,3.1,4.87,25.69,33.39,62.58,36.96,76.74,22.8,8.62-8.62,11.62-25.15,5.12-42.52,22.06-9.81,37.85-35.57,37.85-60.3h0ZM133.83,117.98v-.83c-.04,5.36-4.39,9.7-9.77,9.71-5.37,0-9.72-4.35-9.77-9.71v.83c-.03-.3-.04-.6-.04-.9v-.12h-.09c.03-.2.04-.39.07-.59h.05v.63c0-.21.02-.42.03-.63h0c.36-5.07,4.58-9.09,9.75-9.09s9.39,4.01,9.75,9.08h.06c.03.2.04.39.07.6h-.09v.12c0,.31-.02.61-.04.9h.02Z"></path>
      <g>
        <path class="cls-1" d="M190.06,169.77c-20.97,0-36.57-7.06-46.36-20.99-7.79-11.07-11.73-26.12-11.73-44.72s3.45-36.6,9.46-50.23c7.77-17.63,19.55-26.94,34.05-26.94s33,9.94,48.4,26.58c14.98,16.18,24.27,35.56,24.27,50.58s-6.17,32.04-16.94,44.8c-11.37,13.48-25.99,20.9-41.15,20.9h0ZM175.48,29.45c-32.39,0-40.95,48.8-40.95,74.61,0,18.06,3.79,32.61,11.27,43.24,9.29,13.21,24.18,19.91,44.27,19.91,14.4,0,28.32-7.1,39.2-19.99,10.38-12.31,16.34-28.03,16.34-43.16s-9.04-33.12-23.59-48.84c-14.93-16.14-32.32-25.77-46.52-25.77h-.02Z"></path>
        <path class="cls-1" d="M58.09,169.77c-15.16,0-29.78-7.42-41.15-20.9C6.17,136.1,0,119.78,0,104.06s9.3-34.4,24.27-50.58c15.4-16.65,33.5-26.58,48.4-26.58s26.28,9.31,34.05,26.94c6.01,13.63,9.46,31.94,9.46,50.23s-3.95,33.65-11.73,44.72c-9.79,13.93-25.39,20.99-46.36,20.99h0ZM72.68,29.46c-14.2,0-31.6,9.63-46.52,25.77C11.6,70.94,2.56,89.66,2.56,104.06c0,15.12,5.95,30.85,16.34,43.16,10.87,12.9,24.8,19.99,39.2,19.99,20.09,0,34.99-6.7,44.27-19.91,7.47-10.64,11.27-25.18,11.27-43.24,0-25.81-8.56-74.61-40.95-74.61h0Z"></path>
        <path class="cls-1" d="M66.53,215.99c-9.57,0-17.91-2.93-23.2-8.21-6.43-6.43-9.68-16.68-8.91-28.12,1.19-17.83,11.86-35.66,29.27-48.93h0c14.49-11.04,33.65-13.81,50.49-15.04l1.4-.1-.03,1.54c0,4.66,3.82,8.47,8.5,8.47s8.47-3.79,8.5-8.44h2.56c-.05,34.15-4.34,56.3-13.13,67.72-14.22,18.48-33.29,29.79-52.32,31.03-1.06.07-2.11.1-3.14.1h0ZM65.25,132.76c-16.82,12.83-27.12,29.98-28.26,47.07-.72,10.7,2.26,20.24,8.16,26.14,5.34,5.34,14.22,8.03,24.36,7.36,18.29-1.19,36.69-12.14,50.46-30.04,7.7-10.01,11.91-29.87,12.51-59.07-2.03,2.39-5.06,3.91-8.43,3.91-5.68,0-10.37-4.3-10.99-9.81-16.14,1.26-34.23,4.07-47.81,14.43h0Z"></path>
        <g>
          <path class="cls-1" d="M114.35,117.59h-.03v-.58h-1.28v-1.98h2.66l-.07,1.37c-.02.2-.03.4-.03.61h-1.25v.57h0Z"></path>
          <path class="cls-1" d="M181.61,215.99c-1.03,0-2.08-.03-3.14-.1-19.03-1.24-38.1-12.55-52.32-31.03-8.78-11.42-13.07-33.56-13.13-67.7h2.56c.03,4.65,3.85,8.43,8.5,8.43s8.5-3.81,8.5-8.5v-.09l-.03-1.41,1.4.1c16.84,1.24,36,3.99,50.49,15.04h0c17.41,13.27,28.07,31.1,29.27,48.93.77,11.45-2.48,21.7-8.91,28.12-5.29,5.29-13.62,8.21-23.2,8.21h0ZM115.67,124.23c.61,29.2,4.81,49.06,12.51,59.07,13.77,17.9,32.16,28.84,50.46,30.04,10.13.67,19.02-2.03,24.37-7.36,5.91-5.91,8.89-15.44,8.16-26.14-1.14-17.08-11.45-34.24-28.26-47.07h0c-13.59-10.36-31.68-13.17-47.82-14.43-.62,5.51-5.31,9.81-10.99,9.81-3.37,0-6.39-1.52-8.43-3.91h0Z"></path>
        </g>
        <path class="cls-1" d="M115.52,117.79l-1.31-.14c-16.54-1.71-28.96-7.87-35.93-17.83-7.13-10.18-8.56-24.03-4.27-41.13C83.51,20.84,101.18,0,123.74,0h.06c.09,0,.18,0,.26,0,.12,0,.21,0,.3,0h.08c22.55,0,40.2,20.85,49.71,58.69,4.3,17.11,2.87,30.94-4.26,41.13-6.97,9.95-19.39,16.12-35.91,17.83l-1.31.14-.09-1.31c-.32-4.43-4.03-7.9-8.48-7.9s-8.16,3.47-8.48,7.9l-.09,1.32h0ZM123.68,2.56c-12.26,0-34.78,7.38-47.19,56.75-4.11,16.36-2.81,29.49,3.88,39.04,6.36,9.09,17.71,14.82,32.87,16.61.99-5.12,5.53-8.96,10.86-8.96s9.86,3.84,10.85,8.96c15.14-1.8,26.48-7.53,32.84-16.62,6.69-9.54,7.99-22.68,3.88-39.04C159.28,10,136.81,2.58,124.48,2.56h-.14l-.26.02h-.31l-.09-.02h0Z"></path>
      </g>
    </g>
  </g>
</svg>