<?xml version="1.0" encoding="UTF-8"?>
<svg id="Layer_2" xmlns="http://www.w3.org/2000/svg" version="1.1" viewBox="0 0 248.1 408.9">
  
  <defs>
    
  </defs>
  <g id="Layer_1-2">
    <g>
      <path class="st0" d="M190.1,169.8c-21,0-36.6-7.1-46.4-21-7.8-11.1-11.7-26.1-11.7-44.7s3.4-36.6,9.5-50.2c7.8-17.6,19.6-26.9,34.1-26.9s33,9.9,48.4,26.6c15,16.2,24.3,35.6,24.3,50.6s-6.2,32-16.9,44.8c-11.4,13.5-26,20.9-41.2,20.9h0ZM175.5,29.4c-32.4,0-40.9,48.8-40.9,74.6s3.8,32.6,11.3,43.2c9.3,13.2,24.2,19.9,44.3,19.9s28.3-7.1,39.2-20c10.4-12.3,16.3-28,16.3-43.2s-9-33.1-23.6-48.8c-14.9-16.1-32.3-25.8-46.5-25.8,0,0,0,0,0,0Z"></path>
      <path class="st0" d="M58.1,169.8c-15.2,0-29.8-7.4-41.2-20.9C6.2,136.1,0,119.8,0,104.1s9.3-34.4,24.3-50.6c15.4-16.7,33.5-26.6,48.4-26.6s26.3,9.3,34.1,26.9c6,13.6,9.5,31.9,9.5,50.2s-3.9,33.7-11.7,44.7c-9.8,13.9-25.4,21-46.4,21h0ZM72.7,29.5c-14.2,0-31.6,9.6-46.5,25.8C11.6,70.9,2.6,89.7,2.6,104.1s6,30.9,16.3,43.2c10.9,12.9,24.8,20,39.2,20s35-6.7,44.3-19.9c7.5-10.6,11.3-25.2,11.3-43.2,0-25.8-8.6-74.6-40.9-74.6h0Z"></path>
      <path class="st0" d="M66.5,216c-9.6,0-17.9-2.9-23.2-8.2-6.4-6.4-9.7-16.7-8.9-28.1,1.2-17.8,11.9-35.7,29.3-48.9h0c14.5-11,33.6-13.8,50.5-15h1.4c0,0,0,1.4,0,1.4,0,4.7,3.8,8.5,8.5,8.5s8.5-3.8,8.5-8.4h2.6c0,34.2-4.3,56.3-13.1,67.7-14.2,18.5-33.3,29.8-52.3,31-1.1,0-2.1.1-3.1.1h0ZM65.2,132.8c-16.8,12.8-27.1,30-28.3,47.1-.7,10.7,2.3,20.2,8.2,26.1,5.3,5.3,14.2,8,24.4,7.4,18.3-1.2,36.7-12.1,50.5-30,7.7-10,11.9-29.9,12.5-59.1-2,2.4-5.1,3.9-8.4,3.9-5.7,0-10.4-4.3-11-9.8-16.1,1.3-34.2,4.1-47.8,14.4h0Z"></path>
      <g>
        <path class="st0" d="M114.3,117.6h0v-.6h-1.3v-2h2.7v1.4c0,.2,0,.4,0,.6h-1.2v.6h0Z"></path>
        <path class="st0" d="M181.6,216c-1,0-2.1,0-3.1-.1-19-1.2-38.1-12.6-52.3-31-8.8-11.4-13.1-33.6-13.1-67.7h2.6c0,4.7,3.8,8.4,8.5,8.4s8.5-3.8,8.5-8.5h0c0,0,0-1.5,0-1.5h1.4c16.8,1.3,36,4.1,50.5,15.1h0c17.4,13.3,28.1,31.1,29.3,48.9.8,11.4-2.5,21.7-8.9,28.1-5.3,5.3-13.6,8.2-23.2,8.2h0ZM115.7,124.2c.6,29.2,4.8,49.1,12.5,59.1,13.8,17.9,32.2,28.8,50.5,30,10.1.7,19-2,24.4-7.4,5.9-5.9,8.9-15.4,8.2-26.1-1.1-17.1-11.4-34.2-28.3-47.1h0c-13.6-10.4-31.7-13.2-47.8-14.4-.6,5.5-5.3,9.8-11,9.8s-6.4-1.5-8.4-3.9h0Z"></path>
      </g>
      <path class="st0" d="M115.5,117.8h-1.3c-16.5-1.8-29-8-35.9-18-7.1-10.2-8.6-24-4.3-41.1C83.5,20.8,101.2,0,123.7,0h.7C147,0,164.6,20.8,174.1,58.7c4.3,17.1,2.9,30.9-4.3,41.1-7,9.9-19.4,16.1-35.9,17.8h-1.3c0,.1,0-1.2,0-1.2-.3-4.4-4-7.9-8.5-7.9s-8.2,3.5-8.5,7.9v1.3h-.1ZM123.7,2.6c-12.3,0-34.8,7.4-47.2,56.8-4.1,16.4-2.8,29.5,3.9,39,6.4,9.1,17.7,14.8,32.9,16.6,1-5.1,5.5-9,10.9-9s9.9,3.8,10.9,9c15.1-1.8,26.5-7.5,32.8-16.6,6.7-9.5,8-22.7,3.9-39C159.3,10,136.8,2.6,124.5,2.6h-.4s-.3,0-.3,0h0s0,0,0,0Z"></path>
    </g>
  </g>
</svg>