<?xml version="1.0" encoding="UTF-8"?>
<svg id="Layer_2" xmlns="http://www.w3.org/2000/svg" viewBox="0 0 248.58 216">
  <defs>
    
  </defs>
  <g id="Layer_1-2" data-name="Layer_1">
    <g id="Layer_1-2">
      <g>
        <path class="cls-1" d="M248.57,104.03c0,31.76-25.74,65.21-57.5,65.21-45.64,0-57.5-33.45-57.5-65.21s10.98-76.81,42.74-76.81,72.27,45.05,72.27,76.81h0Z"></path>
        <path class="cls-1" d="M0,104.03c0,31.76,25.74,65.21,57.5,65.21,45.64,0,57.5-33.45,57.5-65.21s-10.97-76.8-42.73-76.8S0,72.27,0,104.03Z"></path>
        <path class="cls-1" d="M63.96,132.04c13.89-10.59,31.96-13.6,50.41-14.97v.12c0,5.47,4.44,9.9,9.9,9.9s9.86-4.39,9.9-9.83c-.03,16.92-.85,51.93-13.01,67.74-26,33.79-63.33,37.4-77.67,23.07-14.33-14.33-13.37-50.23,20.48-76.04h0Z"></path>
        <g class="cls-3">
          <path class="cls-2" d="M114.44,116.43h-.03v.7c0-.23.02-.47.03-.71h0Z"></path>
          <path class="cls-2" d="M184.61,132.04c-13.89-10.59-31.96-13.6-50.41-14.97v.12c0,5.47-4.44,9.9-9.9,9.9s-9.86-4.39-9.9-9.83c.03,16.92.85,51.93,13.01,67.74,26,33.79,63.33,37.4,77.67,23.07,14.33-14.33,13.37-50.23-20.48-76.04h0Z"></path>
        </g>
        <path class="cls-1" d="M173.7,58.42C165.26,24.78,148.93,0,124.64,0h-.06c-.09,0-.19,0-.28.02-.09,0-.19-.02-.28-.02h-.06c-24.29,0-40.62,24.78-49.07,58.42-9.59,38.19,10.74,55.1,39.57,58.08.36-5.14,4.64-9.2,9.87-9.2s9.5,4.06,9.87,9.19c28.81-2.99,49.13-19.9,39.54-58.07h0Z"></path>
      </g>
    </g>
  </g>
</svg>