<?xml version="1.0" encoding="UTF-8"?>
<svg id="Layer_2" data-name="Layer 2" xmlns="http://www.w3.org/2000/svg" viewBox="0 0 233.56 104.86">
  <defs>
    
  </defs>
  <g id="Layer_1-2" data-name="Layer 1">
    <g>
      <circle class="cls-1" cx="116.78" cy="39.01" r="39.01"></circle>
      <g id="Layer_1-2" data-name="Layer 1-2">
        <g>
          <path class="cls-2" d="M142.79,38.18c0,6.65-5.39,13.64-12.03,13.64-9.55,0-12.03-7-12.03-13.64s2.3-16.07,8.94-16.07,15.12,9.43,15.12,16.07h0Z"></path>
          <path class="cls-2" d="M90.78,38.18c0,6.65,5.39,13.64,12.03,13.64,9.55,0,12.03-7,12.03-13.64s-2.3-16.07-8.94-16.07-15.12,9.42-15.12,16.07h0Z"></path>
          <path class="cls-2" d="M104.16,44.04c2.91-2.22,6.69-2.85,10.55-3.13v.03c0,1.14,.93,2.07,2.07,2.07s2.06-.92,2.07-2.06c0,3.54-.18,10.86-2.72,14.17-5.44,7.07-13.25,7.83-16.25,4.83-3-3-2.8-10.51,4.28-15.91h0Z"></path>
          <g class="cls-3">
            <path class="cls-4" d="M114.72,40.77h0v.15c0-.05,0-.1,0-.15h0Z"></path>
            <path class="cls-4" d="M129.4,44.04c-2.91-2.22-6.69-2.85-10.55-3.13v.03c0,1.14-.93,2.07-2.07,2.07s-2.06-.92-2.07-2.06c0,3.54,.18,10.86,2.72,14.17,5.44,7.07,13.25,7.83,16.25,4.83s2.8-10.51-4.28-15.91h0Z"></path>
          </g>
          <path class="cls-2" d="M127.12,28.64c-1.77-7.04-5.18-12.22-10.27-12.22h-.01s-.04,0-.06,0c-.02,0-.04,0-.06,0h-.01c-5.08,0-8.5,5.19-10.27,12.22-2.01,7.99,2.25,11.53,8.28,12.15,.08-1.08,.97-1.93,2.07-1.93s1.99,.85,2.07,1.93c6.03-.62,10.28-4.16,8.27-12.15h0Z"></path>
        </g>
      </g>
    </g>
    <g id="Layer_1-2-2" data-name="Layer 1-2">
      <g>
        <path class="cls-1" d="M6.03,104.53v-15.88c-.23,0-.72,.05-1.45,.14l-4.58,.58v-1.19H13.64v1.19l-4.58-.58c-.73-.09-1.21-.14-1.45-.14v15.88h-1.59Z"></path>
        <path class="cls-1" d="M17.42,104.53v-16.35h1.59v7.57h9.81v-7.57h1.59v16.35h-1.59v-8.22h-9.81v8.22h-1.59Z"></path>
        <path class="cls-1" d="M36.49,104.53v-16.35h7.13v1.14l-4.09-.54c-.72-.09-1.2-.14-1.45-.14v7.12c.2,0,.69-.02,1.45-.07l3.83-.23v1.08l-3.83-.23c-.76-.05-1.24-.07-1.45-.07v7.82c.28,0,.77-.05,1.47-.14l4.13-.54v1.14h-7.2Z"></path>
        <path class="cls-1" d="M52.6,88.18h1.71l5.72,14.3h.14l3.74-9.25-2.03-5.05h1.71l5.7,14.25h.14l4.72-14.25h1.71l-6.73,16.68h-.51l-4.37-10.86-4.39,10.86h-.51l-6.73-16.68h0Z"></path>
        <path class="cls-1" d="M79.49,104.53v-16.35h1.59v7.57h9.81v-7.57h1.59v16.35h-1.59v-8.22h-9.81v8.22h-1.59Z"></path>
        <path class="cls-1" d="M98.55,104.53v-16.35h1.59v16.35h-1.59Z"></path>
        <path class="cls-1" d="M109.95,104.53v-15.88c-.23,0-.72,.05-1.45,.14l-4.58,.58v-1.19h13.64v1.19l-4.58-.58c-.73-.09-1.21-.14-1.45-.14v15.88h-1.59Z"></path>
        <path class="cls-1" d="M121.35,104.53v-16.35h7.13v1.14l-4.09-.54c-.72-.09-1.2-.14-1.45-.14v7.12c.2,0,.69-.02,1.45-.07l3.83-.23v1.08l-3.83-.23c-.76-.05-1.24-.07-1.45-.07v7.82c.28,0,.77-.05,1.47-.14l4.13-.54v1.14h-7.2Z"></path>
        <path class="cls-1" d="M138.59,96.36c0-1.2,.21-2.32,.64-3.35,.43-1.03,1.03-1.94,1.8-2.71s1.67-1.37,2.71-1.8,2.15-.64,3.35-.64,2.32,.21,3.35,.64c1.03,.43,1.94,1.03,2.71,1.8s1.37,1.67,1.8,2.71c.43,1.03,.64,2.15,.64,3.35s-.21,2.32-.64,3.35c-.43,1.03-1.03,1.94-1.8,2.71s-1.67,1.37-2.71,1.8-2.15,.64-3.35,.64-2.32-.22-3.35-.64c-1.03-.43-1.94-1.03-2.71-1.8s-1.37-1.67-1.8-2.71-.64-2.15-.64-3.35Zm1.77,0c0,1.59,.28,2.98,.84,4.17s1.35,2.12,2.36,2.78c1.01,.66,2.19,.99,3.53,.99s2.51-.33,3.53-.99c1.01-.66,1.8-1.59,2.36-2.79s.84-2.59,.84-4.16-.28-2.95-.84-4.15-1.35-2.12-2.36-2.79-2.19-1-3.53-1-2.51,.33-3.52,.99c-1,.66-1.79,1.59-2.36,2.78s-.85,2.58-.85,4.17Z"></path>
        <path class="cls-1" d="M160.5,88.18h3.13c1.65,0,2.93,.35,3.84,1.04,.91,.69,1.37,1.66,1.37,2.91,0,.97-.28,1.77-.85,2.41s-1.39,1.07-2.47,1.29v.14c1.03,.2,1.87,.69,2.52,1.45,.66,.76,1.14,1.71,1.47,2.83,.29,1.03,.59,1.83,.88,2.39,.29,.57,.61,.98,.96,1.23,.35,.25,.77,.43,1.25,.54v.14h-.96c-.69,0-1.25-.13-1.69-.37-.45-.25-.82-.67-1.13-1.26-.31-.59-.61-1.41-.89-2.45-.45-1.6-1.05-2.74-1.8-3.41-.75-.67-1.66-1-2.73-1h-.14v-.42h.14c2.51,0,3.76-1.15,3.76-3.46s-1.18-3.41-3.53-3.41h-1.54v15.79h-1.59v-16.35h0Z"></path>
        <path class="cls-1" d="M188.06,102.52l-.14,1.43c-.44,.19-.97,.35-1.59,.49-.62,.14-1.25,.25-1.89,.31-.64,.07-1.21,.11-1.71,.11-1.26,0-2.43-.22-3.5-.64-1.08-.43-2.01-1.02-2.81-1.79s-1.43-1.66-1.88-2.7c-.45-1.03-.68-2.16-.68-3.37s.23-2.34,.68-3.37c.45-1.03,1.08-1.94,1.88-2.7s1.74-1.36,2.81-1.79c1.08-.43,2.24-.64,3.5-.64,.51,0,1.09,.04,1.73,.12s1.26,.18,1.87,.32c.61,.13,1.12,.28,1.54,.46l-.12,1.31h-.14c-.58-.53-1.3-.93-2.17-1.21s-1.77-.42-2.71-.42c-1.4,0-2.63,.33-3.7,.99-1.07,.66-1.9,1.59-2.5,2.78-.6,1.19-.9,2.58-.9,4.17s.3,3,.9,4.18c.6,1.18,1.43,2.11,2.49,2.77s2.3,.99,3.71,.99c1.06,0,2.04-.17,2.95-.51,.91-.34,1.65-.76,2.23-1.26h.14Z"></path>
        <path class="cls-1" d="M192.73,104.53v-16.35h1.59v7.57h9.81v-7.57h1.59v16.35h-1.59v-8.22h-9.81v8.22h-1.59Z"></path>
        <path class="cls-1" d="M211.8,104.53v-16.35h1.59v16.35h-1.59Z"></path>
        <path class="cls-1" d="M219.46,104.53v-16.35h5.14c1.81,0,3.38,.34,4.72,1.03,1.34,.69,2.38,1.64,3.13,2.86,.75,1.22,1.12,2.65,1.12,4.29s-.37,3.06-1.12,4.29-1.79,2.18-3.13,2.86c-1.34,.69-2.91,1.03-4.72,1.03h-5.14Zm5.14-15.79h-3.55v15.23h3.55c2.26,0,4.02-.67,5.29-2.01s1.9-3.21,1.9-5.61-.64-4.27-1.9-5.61c-1.27-1.34-3.03-2.01-5.29-2.01Z"></path>
      </g>
    </g>
  </g>
</svg>