<svg width="618" height="274" viewBox="0 0 618 274" fill="none" xmlns="http://www.w3.org/2000/svg">
<path fill-rule="evenodd" clip-rule="evenodd" d="M151.136 273.089C155.796 273.089 160.336 272.359 164.676 271.029C168.036 269.999 169.636 266.179 168.116 263.019C163.486 253.399 155.886 243.729 144.666 235.169C130.956 224.719 113.156 221.659 94.9565 220.269C123.386 217.079 143.286 200.139 133.776 162.289C131.756 154.239 129.276 146.689 126.356 139.869C124.876 136.429 120.506 135.299 117.556 137.609C100.136 151.229 93.6465 183.489 93.6465 207.899C93.6465 239.659 105.506 273.109 151.146 273.109L151.136 273.089Z" fill="#B4D6C0"></path>
<path d="M84.5165 230.918C90.0836 230.918 94.5965 226.405 94.5965 220.838C94.5965 215.271 90.0836 210.758 84.5165 210.758C78.9495 210.758 74.4365 215.271 74.4365 220.838C74.4365 226.405 78.9495 230.918 84.5165 230.918Z" fill="#B4D6C0"></path>
<path fill-rule="evenodd" clip-rule="evenodd" d="M17.5568 273.089C12.8968 273.089 8.3568 272.359 4.0168 271.029C0.656797 269.999 -0.943203 266.179 0.576797 263.019C5.2068 253.399 12.8068 243.729 24.0268 235.169C37.7368 224.719 55.5368 221.659 73.7368 220.269C45.3068 217.079 25.4068 200.139 34.9168 162.289C36.9368 154.239 39.4168 146.689 42.3368 139.869C43.8168 136.429 48.1868 135.299 51.1368 137.609C68.5568 151.229 75.0468 183.489 75.0468 207.899C75.0468 239.659 63.1868 273.109 17.5468 273.109L17.5568 273.089Z" fill="#B4D6C0"></path>
<path fill-rule="evenodd" clip-rule="evenodd" d="M300.846 136.379C305.506 136.379 310.046 137.109 314.386 138.439C317.746 139.469 319.346 143.289 317.826 146.449C313.196 156.069 305.596 165.739 294.376 174.299C280.666 184.749 262.866 187.809 244.666 189.199C273.096 192.389 292.996 209.329 283.486 247.179C281.466 255.229 278.986 262.779 276.066 269.599C274.586 273.039 270.216 274.169 267.266 271.859C249.846 258.239 243.356 225.979 243.356 201.569C243.356 169.809 255.216 136.359 300.856 136.359L300.846 136.379Z" fill="#B4D6C0"></path>
<path d="M234.226 198.709C239.794 198.709 244.306 194.196 244.306 188.629C244.306 183.062 239.794 178.549 234.226 178.549C228.659 178.549 224.146 183.062 224.146 188.629C224.146 194.196 228.659 198.709 234.226 198.709Z" fill="#B4D6C0"></path>
<path fill-rule="evenodd" clip-rule="evenodd" d="M167.277 136.379C162.617 136.379 158.077 137.109 153.737 138.439C150.377 139.469 148.777 143.289 150.297 146.449C154.927 156.069 162.527 165.739 173.747 174.299C187.457 184.749 205.257 187.809 223.457 189.199C195.027 192.389 175.127 209.329 184.637 247.179C186.657 255.229 189.137 262.779 192.057 269.599C193.537 273.039 197.907 274.169 200.857 271.859C218.277 258.239 224.767 225.979 224.767 201.569C224.767 169.809 212.907 136.359 167.267 136.359L167.277 136.379Z" fill="#B4D6C0"></path>
<path d="M139.637 156.539C145.204 156.539 149.717 152.026 149.717 146.459C149.717 140.892 145.204 136.379 139.637 136.379C134.07 136.379 129.557 140.892 129.557 146.459C129.557 152.026 134.07 156.539 139.637 156.539Z" fill="#B4D6C0"></path>
<path d="M289.337 273.09C294.904 273.09 299.417 268.577 299.417 263.01C299.417 257.443 294.904 252.93 289.337 252.93C283.77 252.93 279.257 257.443 279.257 263.01C279.257 268.577 283.77 273.09 289.337 273.09Z" fill="#B4D6C0"></path>
<path fill-rule="evenodd" clip-rule="evenodd" d="M450.217 273.089C454.877 273.089 459.417 272.359 463.757 271.029C467.117 269.999 468.717 266.179 467.197 263.019C462.567 253.399 454.967 243.729 443.747 235.169C430.037 224.719 412.237 221.659 394.037 220.269C422.467 217.079 442.367 200.139 432.857 162.289C430.837 154.239 428.357 146.689 425.437 139.869C423.957 136.429 419.587 135.299 416.637 137.609C399.217 151.229 392.727 183.489 392.727 207.899C392.727 239.659 404.587 273.109 450.227 273.109L450.217 273.089Z" fill="#B4D6C0"></path>
<path d="M383.597 230.918C389.164 230.918 393.677 226.405 393.677 220.838C393.677 215.271 389.164 210.758 383.597 210.758C378.03 210.758 373.517 215.271 373.517 220.838C373.517 226.405 378.03 230.918 383.597 230.918Z" fill="#B4D6C0"></path>
<path fill-rule="evenodd" clip-rule="evenodd" d="M316.647 273.089C311.987 273.089 307.447 272.359 303.107 271.029C299.747 269.999 298.147 266.179 299.667 263.019C304.297 253.399 311.897 243.729 323.117 235.169C336.827 224.719 354.627 221.659 372.827 220.269C344.397 217.079 324.497 200.139 334.007 162.289C336.027 154.239 338.507 146.689 341.427 139.869C342.907 136.429 347.277 135.299 350.227 137.609C367.647 151.229 374.137 183.489 374.137 207.899C374.137 239.659 362.277 273.109 316.637 273.109L316.647 273.089Z" fill="#B4D6C0"></path>
<path fill-rule="evenodd" clip-rule="evenodd" d="M599.927 136.379C604.587 136.379 609.127 137.109 613.467 138.439C616.827 139.469 618.427 143.289 616.907 146.449C612.277 156.069 604.677 165.739 593.457 174.299C579.747 184.749 561.947 187.809 543.747 189.199C572.177 192.389 592.077 209.329 582.567 247.179C580.547 255.229 578.067 262.779 575.147 269.599C573.667 273.039 569.297 274.169 566.347 271.859C548.927 258.239 542.437 225.979 542.437 201.569C542.437 169.809 554.297 136.359 599.937 136.359L599.927 136.379Z" fill="#B4D6C0"></path>
<path d="M533.307 198.709C538.874 198.709 543.387 194.196 543.387 188.629C543.387 183.062 538.874 178.549 533.307 178.549C527.74 178.549 523.227 183.062 523.227 188.629C523.227 194.196 527.74 198.709 533.307 198.709Z" fill="#B4D6C0"></path>
<path fill-rule="evenodd" clip-rule="evenodd" d="M466.357 136.379C461.697 136.379 457.157 137.109 452.817 138.439C449.457 139.469 447.857 143.289 449.377 146.449C454.007 156.069 461.607 165.739 472.827 174.299C486.537 184.749 504.337 187.809 522.537 189.199C494.107 192.389 474.207 209.329 483.717 247.179C485.737 255.229 488.217 262.779 491.137 269.599C492.617 273.039 496.987 274.169 499.937 271.859C517.357 258.239 523.847 225.979 523.847 201.569C523.847 169.809 511.987 136.359 466.347 136.359L466.357 136.379Z" fill="#B4D6C0"></path>
<path d="M438.726 156.539C444.294 156.539 448.806 152.026 448.806 146.459C448.806 140.892 444.294 136.379 438.726 136.379C433.159 136.379 428.646 140.892 428.646 146.459C428.646 152.026 433.159 156.539 438.726 156.539Z" fill="#B4D6C0"></path>
<path d="M588.417 273.09C593.984 273.09 598.497 268.577 598.497 263.01C598.497 257.443 593.984 252.93 588.417 252.93C582.85 252.93 578.337 257.443 578.337 263.01C578.337 268.577 582.85 273.09 588.417 273.09Z" fill="#B4D6C0"></path>
<path fill-rule="evenodd" clip-rule="evenodd" d="M466.357 136.7C461.697 136.7 457.157 135.97 452.817 134.64C449.457 133.61 447.857 129.79 449.377 126.63C454.007 117.01 461.607 107.34 472.827 98.7799C486.537 88.3299 504.337 85.2699 522.537 83.8799C494.107 80.6899 474.207 63.7499 483.717 25.8999C485.737 17.8499 488.217 10.2999 491.137 3.47992C492.617 0.0399172 496.987 -1.09008 499.937 1.21992C517.357 14.8399 523.847 47.0999 523.847 71.5099C523.847 103.27 511.987 136.72 466.347 136.72L466.357 136.7Z" fill="#B4D6C0"></path>
<path d="M532.976 94.5291C538.543 94.5291 543.056 90.0162 543.056 84.4491C543.056 78.8821 538.543 74.3691 532.976 74.3691C527.409 74.3691 522.896 78.8821 522.896 84.4491C522.896 90.0162 527.409 94.5291 532.976 94.5291Z" fill="#B4D6C0"></path>
<path fill-rule="evenodd" clip-rule="evenodd" d="M599.927 136.7C604.587 136.7 609.127 135.97 613.467 134.64C616.827 133.61 618.427 129.79 616.907 126.63C612.277 117.01 604.677 107.34 593.457 98.7799C579.747 88.3299 561.947 85.2699 543.747 83.8799C572.177 80.6899 592.077 63.7499 582.567 25.8999C580.547 17.8499 578.067 10.2999 575.147 3.47992C573.667 0.0399172 569.297 -1.09008 566.347 1.21992C548.927 14.8399 542.437 47.0999 542.437 71.5099C542.437 103.27 554.297 136.72 599.937 136.72L599.927 136.7Z" fill="#B4D6C0"></path>
<path fill-rule="evenodd" clip-rule="evenodd" d="M316.647 0C311.977 0 307.447 0.73 303.107 2.06C299.747 3.09 298.147 6.91 299.667 10.07C304.297 19.69 311.897 29.36 323.117 37.92C336.827 48.37 354.627 51.43 372.827 52.82C344.397 56.01 324.497 72.95 334.007 110.8C336.027 118.85 338.507 126.4 341.427 133.22C342.907 136.66 347.277 137.79 350.227 135.48C367.647 121.86 374.137 89.6 374.137 65.19C374.147 33.45 362.287 0 316.647 0Z" fill="#B4D6C0"></path>
<path d="M383.267 62.3299C388.834 62.3299 393.347 57.817 393.347 52.2499C393.347 46.6829 388.834 42.1699 383.267 42.1699C377.7 42.1699 373.187 46.6829 373.187 52.2499C373.187 57.817 377.7 62.3299 383.267 62.3299Z" fill="#B4D6C0"></path>
<path fill-rule="evenodd" clip-rule="evenodd" d="M450.217 0C454.887 0 459.417 0.73 463.757 2.06C467.117 3.09 468.717 6.91 467.197 10.07C462.567 19.69 454.967 29.36 443.747 37.92C430.037 48.37 412.237 51.43 394.037 52.82C422.467 56.01 442.367 72.95 432.857 110.8C430.837 118.85 428.357 126.4 425.437 133.22C423.957 136.66 419.587 137.79 416.637 135.48C399.217 121.86 392.727 89.6 392.727 65.19C392.717 33.45 404.577 0 450.217 0Z" fill="#B4D6C0"></path>
<path d="M477.847 20.16C483.414 20.16 487.927 15.647 487.927 10.08C487.927 4.51297 483.414 0 477.847 0C472.28 0 467.767 4.51297 467.767 10.08C467.767 15.647 472.28 20.16 477.847 20.16Z" fill="#B4D6C0"></path>
<path d="M328.156 136.699C333.723 136.699 338.236 132.186 338.236 126.619C338.236 121.052 333.723 116.539 328.156 116.539C322.589 116.539 318.076 121.052 318.076 126.619C318.076 132.186 322.589 136.699 328.156 136.699Z" fill="#B4D6C0"></path>
<path fill-rule="evenodd" clip-rule="evenodd" d="M167.277 136.7C162.617 136.7 158.077 135.97 153.737 134.64C150.377 133.61 148.777 129.79 150.297 126.63C154.927 117.01 162.527 107.34 173.747 98.7799C187.457 88.3299 205.257 85.2699 223.457 83.8799C195.027 80.6899 175.127 63.7499 184.637 25.8999C186.657 17.8499 189.137 10.2999 192.057 3.47992C193.537 0.0399172 197.907 -1.09008 200.857 1.21992C218.277 14.8399 224.767 47.0999 224.767 71.5099C224.767 103.27 212.907 136.72 167.267 136.72L167.277 136.7Z" fill="#B4D6C0"></path>
<path d="M233.896 94.5291C239.463 94.5291 243.976 90.0162 243.976 84.4491C243.976 78.8821 239.463 74.3691 233.896 74.3691C228.329 74.3691 223.816 78.8821 223.816 84.4491C223.816 90.0162 228.329 94.5291 233.896 94.5291Z" fill="#B4D6C0"></path>
<path fill-rule="evenodd" clip-rule="evenodd" d="M300.846 136.7C305.506 136.7 310.046 135.97 314.386 134.64C317.746 133.61 319.346 129.79 317.826 126.63C313.196 117.01 305.596 107.34 294.376 98.7799C280.666 88.3299 262.866 85.2699 244.666 83.8799C273.096 80.6899 292.996 63.7499 283.486 25.8999C281.466 17.8499 278.986 10.2999 276.066 3.47992C274.586 0.0399172 270.216 -1.09008 267.266 1.21992C249.846 14.8399 243.356 47.0999 243.356 71.5099C243.356 103.27 255.216 136.72 300.856 136.72L300.846 136.7Z" fill="#B4D6C0"></path>
<path fill-rule="evenodd" clip-rule="evenodd" d="M17.5566 0C12.8966 0 8.36656 0.73 4.02656 2.06C0.666563 3.09 -0.933437 6.91 0.586563 10.07C5.21656 19.69 12.8166 29.36 24.0366 37.92C37.7466 48.37 55.5466 51.43 73.7466 52.82C45.3166 56.01 25.4166 72.95 34.9266 110.8C36.9466 118.85 39.4266 126.4 42.3466 133.22C43.8266 136.66 48.1966 137.79 51.1466 135.48C68.5666 121.86 75.0566 89.6 75.0566 65.19C75.0566 33.45 63.1966 0 17.5566 0Z" fill="#B4D6C0"></path>
<path d="M84.1864 62.3299C89.7535 62.3299 94.2664 57.817 94.2664 52.2499C94.2664 46.6829 89.7535 42.1699 84.1864 42.1699C78.6194 42.1699 74.1064 46.6829 74.1064 52.2499C74.1064 57.817 78.6194 62.3299 84.1864 62.3299Z" fill="#B4D6C0"></path>
<path fill-rule="evenodd" clip-rule="evenodd" d="M151.136 0C155.796 0 160.326 0.73 164.676 2.06C168.036 3.09 169.636 6.91 168.116 10.07C163.486 19.69 155.886 29.36 144.666 37.92C130.956 48.37 113.156 51.43 94.9565 52.82C123.386 56.01 143.286 72.95 133.776 110.8C131.756 118.85 129.276 126.4 126.356 133.22C124.876 136.66 120.506 137.79 117.556 135.48C100.136 121.86 93.6465 89.6 93.6465 65.19C93.6365 33.45 105.496 0 151.136 0Z" fill="#B4D6C0"></path>
<path d="M178.767 20.16C184.334 20.16 188.847 15.647 188.847 10.08C188.847 4.51297 184.334 0 178.767 0C173.199 0 168.687 4.51297 168.687 10.08C168.687 15.647 173.199 20.16 178.767 20.16Z" fill="#B4D6C0"></path>
<path d="M29.0761 136.699C34.6431 136.699 39.1561 132.186 39.1561 126.619C39.1561 121.052 34.6431 116.539 29.0761 116.539C23.5091 116.539 18.9961 121.052 18.9961 126.619C18.9961 132.186 23.5091 136.699 29.0761 136.699Z" fill="#B4D6C0"></path>
</svg>