<svg width="619" height="275" viewBox="0 0 619 275" fill="none" xmlns="http://www.w3.org/2000/svg">
<path d="M151.629 274.099C130.679 274.099 115.109 267.069 105.359 253.189C97.5789 242.119 93.6289 227.049 93.6289 208.389C93.6289 184.479 99.9389 151.619 117.729 137.709C119.259 136.519 121.219 136.109 123.109 136.589C124.999 137.079 126.529 138.379 127.299 140.169C130.129 146.779 132.609 154.209 134.649 162.289L134.749 162.669C139.019 179.679 137.639 193.419 130.639 203.509C124.479 212.399 113.909 218.269 99.9289 220.649C115.429 222.099 132.339 225.289 145.459 235.279C156.059 243.359 163.999 252.789 169.059 263.309C169.859 264.969 169.889 266.889 169.159 268.579C168.439 270.239 167.039 271.489 165.319 272.019C160.819 273.399 156.219 274.099 151.639 274.099H151.629ZM121.539 137.399C120.389 137.399 119.269 137.779 118.349 138.499C100.839 152.189 94.6289 184.709 94.6289 208.389C94.6289 226.839 98.5089 241.719 106.169 252.619C115.729 266.209 131.019 273.099 151.629 273.099C156.109 273.099 160.619 272.409 165.019 271.059C166.459 270.619 167.629 269.569 168.239 268.179C168.859 266.759 168.829 265.139 168.159 263.739C163.169 253.369 155.329 244.059 144.869 236.079C130.699 225.269 111.919 222.529 95.4189 221.269L95.3989 220.269C111.299 218.479 123.199 212.489 129.829 202.939C136.609 193.159 137.969 179.809 133.879 163.259L133.779 162.909C131.729 154.739 129.239 147.229 126.379 140.569C125.739 139.069 124.449 137.969 122.859 137.569C122.419 137.459 121.979 137.399 121.539 137.399Z" fill="#B4D6C0"></path>
<path d="M85.0087 231.93C79.1787 231.93 74.4287 227.18 74.4287 221.35C74.4287 215.52 79.1787 210.77 85.0087 210.77C90.8387 210.77 95.5887 215.52 95.5887 221.35C95.5887 227.18 90.8387 231.93 85.0087 231.93ZM85.0087 211.77C79.7287 211.77 75.4287 216.07 75.4287 221.35C75.4287 226.63 79.7287 230.93 85.0087 230.93C90.2887 230.93 94.5887 226.63 94.5887 221.35C94.5887 216.07 90.2887 211.77 85.0087 211.77Z" fill="#B4D6C0"></path>
<path d="M18.0487 274.099C13.4687 274.099 8.85869 273.399 4.36869 272.019C2.64869 271.489 1.24869 270.239 0.528693 268.579C-0.211307 266.889 -0.171307 264.969 0.628693 263.309C5.68869 252.789 13.6287 243.359 24.2287 235.279C37.3387 225.289 54.2587 222.099 69.7587 220.649C55.7687 218.279 45.2087 212.399 39.0487 203.509C32.0487 193.419 30.6687 179.669 34.9387 162.669L35.0387 162.289C37.0787 154.219 39.5587 146.779 42.3887 140.169C43.1587 138.379 44.6787 137.079 46.5787 136.589C48.4687 136.109 50.4287 136.509 51.9587 137.709C69.7487 151.619 76.0587 184.479 76.0587 208.389C76.0587 227.049 72.1087 242.119 64.3287 253.189C54.5787 267.059 39.0087 274.099 18.0587 274.099H18.0487ZM24.8187 236.079C14.3487 244.059 6.51869 253.369 1.52869 263.739C0.858693 265.139 0.828693 266.759 1.44869 268.179C2.05869 269.569 3.22869 270.619 4.66869 271.059C9.06869 272.409 13.5787 273.099 18.0587 273.099C38.6687 273.099 53.9587 266.209 63.5087 252.619C71.1687 241.719 75.0487 226.839 75.0487 208.389C75.0487 184.699 68.8387 152.189 51.3287 138.499C50.0487 137.499 48.3987 137.159 46.8187 137.559C45.2287 137.969 43.9487 139.059 43.2987 140.559C40.4387 147.219 37.9487 154.739 35.8987 162.899L35.7987 163.279C31.7187 179.819 33.0787 193.159 39.8587 202.929C46.4887 212.489 58.3887 218.479 74.2887 220.259L74.2687 221.259C57.7687 222.519 38.9987 225.259 24.8187 236.069V236.079Z" fill="#B4D6C0"></path>
<path d="M271.249 274.099C269.879 274.099 268.549 273.649 267.439 272.779C249.649 258.869 243.339 226.009 243.339 202.099C243.339 183.439 247.289 168.369 255.069 157.299C264.819 143.429 280.389 136.389 301.339 136.389C305.929 136.389 310.529 137.089 315.019 138.469C316.739 138.999 318.139 140.249 318.859 141.909C319.599 143.599 319.559 145.519 318.759 147.179C313.699 157.699 305.759 167.129 295.159 175.209C282.039 185.209 265.129 188.389 249.629 189.839C263.619 192.209 274.179 198.089 280.349 206.979C287.349 217.069 288.729 230.819 284.459 247.819L284.359 248.199C282.319 256.269 279.849 263.709 277.009 270.319C276.239 272.109 274.719 273.409 272.819 273.899C272.299 274.029 271.769 274.099 271.249 274.099ZM301.339 137.399C280.729 137.399 265.439 144.289 255.879 157.879C248.219 168.779 244.339 183.659 244.339 202.109C244.339 225.799 250.549 258.309 268.059 271.999C269.339 272.999 270.989 273.339 272.569 272.939C274.159 272.529 275.439 271.439 276.089 269.939C278.949 263.269 281.439 255.759 283.489 247.599L283.589 247.219C287.669 230.679 286.309 217.339 279.529 207.569C272.899 198.019 260.999 192.019 245.099 190.239L245.119 189.239C261.619 187.979 280.399 185.239 294.569 174.429C305.039 166.449 312.879 157.139 317.859 146.769C318.529 145.369 318.559 143.749 317.939 142.329C317.329 140.939 316.159 139.889 314.719 139.449C310.319 138.099 305.819 137.409 301.329 137.409L301.339 137.399Z" fill="#B4D6C0"></path>
<path d="M234.719 199.719C228.889 199.719 224.139 194.969 224.139 189.139C224.139 183.309 228.889 178.559 234.719 178.559C240.549 178.559 245.299 183.309 245.299 189.139C245.299 194.969 240.549 199.719 234.719 199.719ZM234.719 179.559C229.439 179.559 225.139 183.859 225.139 189.139C225.139 194.419 229.439 198.719 234.719 198.719C239.999 198.719 244.299 194.419 244.299 189.139C244.299 183.859 239.999 179.559 234.719 179.559Z" fill="#B4D6C0"></path>
<path d="M197.859 274.099C197.339 274.099 196.809 274.029 196.289 273.899C194.399 273.409 192.869 272.109 192.099 270.319C189.269 263.709 186.789 256.269 184.749 248.199L184.649 247.819C180.379 230.809 181.759 217.069 188.759 206.979C194.919 198.089 205.489 192.219 219.469 189.839C203.969 188.389 187.059 185.199 173.939 175.209C163.339 167.129 155.399 157.699 150.339 147.179C149.539 145.519 149.509 143.599 150.239 141.909C150.959 140.249 152.359 138.999 154.079 138.469C158.569 137.089 163.179 136.389 167.759 136.389C188.709 136.389 204.279 143.419 214.029 157.299C221.809 168.369 225.759 183.439 225.759 202.099C225.759 226.009 219.449 258.869 201.659 272.779C200.549 273.639 199.219 274.099 197.849 274.099H197.859ZM185.529 247.229L185.629 247.579C187.679 255.749 190.169 263.259 193.029 269.919C193.669 271.419 194.959 272.509 196.549 272.919C198.139 273.329 199.779 272.989 201.059 271.979C218.559 258.289 224.779 225.769 224.779 202.089C224.779 183.639 220.899 168.759 213.239 157.859C203.689 144.269 188.389 137.379 167.789 137.379C163.299 137.379 158.799 138.069 154.399 139.419C152.959 139.859 151.789 140.909 151.179 142.299C150.559 143.719 150.589 145.339 151.259 146.739C156.249 157.109 164.089 166.419 174.549 174.399C188.719 185.209 207.499 187.949 223.999 189.209L224.019 190.209C208.119 191.999 196.219 197.989 189.589 207.539C182.809 217.319 181.449 230.669 185.539 247.219L185.529 247.229Z" fill="#B4D6C0"></path>
<path d="M140.129 157.558C134.299 157.558 129.549 152.808 129.549 146.978C129.549 141.148 134.299 136.398 140.129 136.398C145.959 136.398 150.709 141.148 150.709 146.978C150.709 152.808 145.959 157.558 140.129 157.558ZM140.129 137.398C134.849 137.398 130.549 141.698 130.549 146.978C130.549 152.258 134.849 156.558 140.129 156.558C145.409 156.558 149.709 152.258 149.709 146.978C149.709 141.698 145.409 137.398 140.129 137.398Z" fill="#B4D6C0"></path>
<path d="M289.829 274.098C283.999 274.098 279.249 269.348 279.249 263.518C279.249 257.688 283.999 252.938 289.829 252.938C295.659 252.938 300.409 257.688 300.409 263.518C300.409 269.348 295.659 274.098 289.829 274.098ZM289.829 253.938C284.549 253.938 280.249 258.238 280.249 263.518C280.249 268.798 284.549 273.098 289.829 273.098C295.109 273.098 299.409 268.798 299.409 263.518C299.409 258.238 295.109 253.938 289.829 253.938Z" fill="#B4D6C0"></path>
<path d="M450.709 274.099C429.759 274.099 414.189 267.069 404.439 253.189C396.659 242.119 392.709 227.049 392.709 208.389C392.709 184.479 399.019 151.619 416.809 137.709C418.339 136.519 420.299 136.109 422.189 136.589C424.079 137.079 425.609 138.379 426.379 140.169C429.209 146.779 431.689 154.209 433.729 162.289L433.829 162.669C438.099 179.679 436.719 193.419 429.719 203.509C423.559 212.389 412.989 218.269 399.009 220.649C414.509 222.099 431.419 225.289 444.539 235.279C455.139 243.359 463.079 252.789 468.139 263.309C468.939 264.969 468.969 266.889 468.239 268.579C467.519 270.239 466.119 271.489 464.399 272.019C459.899 273.399 455.299 274.099 450.719 274.099H450.709ZM420.619 137.399C419.469 137.399 418.349 137.779 417.429 138.499C399.929 152.189 393.709 184.709 393.709 208.389C393.709 226.839 397.589 241.719 405.249 252.619C414.799 266.209 430.099 273.099 450.709 273.099C455.189 273.099 459.699 272.409 464.099 271.059C465.539 270.619 466.709 269.569 467.319 268.179C467.939 266.759 467.909 265.139 467.239 263.739C462.249 253.369 454.409 244.059 443.949 236.079C429.779 225.269 410.999 222.529 394.499 221.269L394.479 220.269C410.379 218.489 422.279 212.489 428.909 202.939C435.689 193.159 437.049 179.809 432.959 163.259L432.859 162.909C430.809 154.739 428.319 147.229 425.459 140.569C424.819 139.069 423.529 137.969 421.939 137.569C421.499 137.459 421.059 137.399 420.619 137.399Z" fill="#B4D6C0"></path>
<path d="M384.089 231.93C378.259 231.93 373.509 227.18 373.509 221.35C373.509 215.52 378.259 210.77 384.089 210.77C389.919 210.77 394.669 215.52 394.669 221.35C394.669 227.18 389.919 231.93 384.089 231.93ZM384.089 211.77C378.809 211.77 374.509 216.07 374.509 221.35C374.509 226.63 378.809 230.93 384.089 230.93C389.369 230.93 393.669 226.63 393.669 221.35C393.669 216.07 389.369 211.77 384.089 211.77Z" fill="#B4D6C0"></path>
<path d="M317.139 274.099C312.559 274.099 307.949 273.399 303.459 272.019C301.739 271.489 300.339 270.239 299.619 268.579C298.879 266.889 298.919 264.969 299.719 263.309C304.779 252.789 312.719 243.359 323.319 235.279C336.429 225.289 353.349 222.099 368.849 220.649C354.859 218.279 344.299 212.399 338.139 203.509C331.139 193.419 329.759 179.669 334.029 162.669L334.129 162.289C336.169 154.219 338.649 146.779 341.479 140.169C342.249 138.379 343.769 137.079 345.669 136.589C347.559 136.109 349.519 136.509 351.049 137.709C368.839 151.619 375.149 184.479 375.149 208.389C375.149 227.049 371.199 242.119 363.419 253.189C353.669 267.059 338.099 274.099 317.149 274.099H317.139ZM323.909 236.079C313.439 244.059 305.599 253.369 300.619 263.739C299.949 265.139 299.919 266.759 300.539 268.179C301.149 269.569 302.319 270.619 303.759 271.059C308.159 272.409 312.669 273.099 317.149 273.099C337.759 273.099 353.049 266.209 362.609 252.619C370.269 241.719 374.149 226.839 374.149 208.389C374.149 184.699 367.939 152.189 350.429 138.499C349.149 137.499 347.499 137.159 345.919 137.559C344.329 137.969 343.039 139.059 342.399 140.559C339.539 147.219 337.049 154.739 334.999 162.899L334.899 163.279C330.819 179.819 332.179 193.159 338.959 202.929C345.589 212.489 357.489 218.479 373.389 220.259L373.369 221.259C356.869 222.519 338.089 225.259 323.919 236.069L323.909 236.079Z" fill="#B4D6C0"></path>
<path d="M570.329 274.099C568.959 274.099 567.629 273.649 566.519 272.779C548.729 258.869 542.419 226.009 542.419 202.099C542.419 183.439 546.369 168.369 554.149 157.299C563.899 143.429 579.469 136.389 600.419 136.389C605.009 136.389 609.609 137.089 614.099 138.469C615.819 138.999 617.219 140.249 617.939 141.909C618.679 143.599 618.639 145.519 617.839 147.179C612.779 157.699 604.839 167.129 594.239 175.209C581.129 185.209 564.209 188.389 548.709 189.839C562.699 192.209 573.259 198.089 579.429 206.979C586.429 217.069 587.809 230.819 583.539 247.819L583.439 248.199C581.399 256.269 578.919 263.709 576.089 270.319C575.319 272.109 573.799 273.409 571.899 273.899C571.379 274.029 570.849 274.099 570.329 274.099ZM600.419 137.399C579.809 137.399 564.519 144.289 554.959 157.879C547.299 168.779 543.419 183.659 543.419 202.109C543.419 225.799 549.629 258.309 567.139 271.999C568.419 272.999 570.059 273.339 571.649 272.939C573.239 272.529 574.519 271.439 575.169 269.939C578.029 263.279 580.519 255.759 582.569 247.599L582.669 247.219C586.749 230.679 585.389 217.339 578.609 207.569C571.979 198.019 560.079 192.019 544.179 190.239L544.199 189.239C560.699 187.979 579.479 185.239 593.649 174.429C604.119 166.449 611.959 157.139 616.939 146.769C617.609 145.369 617.639 143.749 617.019 142.329C616.409 140.939 615.239 139.889 613.799 139.449C609.399 138.099 604.889 137.409 600.409 137.409L600.419 137.399Z" fill="#B4D6C0"></path>
<path d="M533.799 199.719C527.969 199.719 523.219 194.969 523.219 189.139C523.219 183.309 527.969 178.559 533.799 178.559C539.629 178.559 544.379 183.309 544.379 189.139C544.379 194.969 539.629 199.719 533.799 199.719ZM533.799 179.559C528.519 179.559 524.219 183.859 524.219 189.139C524.219 194.419 528.519 198.719 533.799 198.719C539.079 198.719 543.379 194.419 543.379 189.139C543.379 183.859 539.079 179.559 533.799 179.559Z" fill="#B4D6C0"></path>
<path d="M496.939 274.099C496.419 274.099 495.889 274.029 495.369 273.899C493.479 273.409 491.949 272.109 491.179 270.319C488.349 263.709 485.868 256.269 483.828 248.199L483.729 247.819C479.459 230.809 480.839 217.069 487.839 206.979C493.999 198.089 504.569 192.219 518.559 189.839C503.059 188.389 486.139 185.199 473.029 175.209C462.429 167.129 454.489 157.699 449.429 147.179C448.629 145.519 448.588 143.599 449.328 141.909C450.048 140.249 451.449 138.999 453.169 138.469C457.659 137.089 462.269 136.389 466.849 136.389C487.799 136.389 503.368 143.419 513.118 157.299C520.898 168.369 524.848 183.439 524.848 202.099C524.848 226.009 518.539 258.869 500.749 272.779C499.639 273.639 498.309 274.099 496.939 274.099ZM484.608 247.239L484.708 247.589C486.758 255.759 489.248 263.269 492.108 269.929C492.748 271.429 494.039 272.519 495.629 272.929C497.219 273.339 498.859 272.999 500.139 271.989C517.639 258.299 523.858 225.779 523.858 202.099C523.858 183.649 519.979 168.769 512.319 157.869C502.769 144.279 487.469 137.389 466.869 137.389C462.379 137.389 457.879 138.079 453.479 139.429C452.039 139.869 450.869 140.919 450.259 142.309C449.639 143.729 449.669 145.349 450.339 146.749C455.329 157.119 463.169 166.429 473.629 174.409C487.799 185.219 506.579 187.959 523.079 189.219L523.098 190.219C507.198 192.009 495.299 197.999 488.669 207.549C481.889 217.329 480.529 230.679 484.619 247.229L484.608 247.239Z" fill="#B4D6C0"></path>
<path d="M439.219 157.558C433.389 157.558 428.639 152.808 428.639 146.978C428.639 141.148 433.389 136.398 439.219 136.398C445.049 136.398 449.799 141.148 449.799 146.978C449.799 152.808 445.049 157.558 439.219 157.558ZM439.219 137.398C433.939 137.398 429.639 141.698 429.639 146.978C429.639 152.258 433.939 156.558 439.219 156.558C444.499 156.558 448.799 152.258 448.799 146.978C448.799 141.698 444.499 137.398 439.219 137.398Z" fill="#B4D6C0"></path>
<path d="M588.909 274.098C583.079 274.098 578.329 269.348 578.329 263.518C578.329 257.688 583.079 252.938 588.909 252.938C594.739 252.938 599.489 257.688 599.489 263.518C599.489 269.348 594.739 274.098 588.909 274.098ZM588.909 253.938C583.629 253.938 579.329 258.238 579.329 263.518C579.329 268.798 583.629 273.098 588.909 273.098C594.189 273.098 598.489 268.798 598.489 263.518C598.489 258.238 594.189 253.938 588.909 253.938Z" fill="#B4D6C0"></path>
<path d="M466.849 137.708C462.259 137.708 457.659 137.008 453.169 135.628C451.449 135.098 450.048 133.848 449.328 132.188C448.588 130.498 448.629 128.578 449.429 126.918C454.489 116.398 462.429 106.968 473.029 98.888C486.149 88.888 503.059 85.708 518.559 84.258C504.569 81.888 494.009 76.008 487.839 67.118C480.839 57.028 479.459 43.278 483.729 26.278L483.828 25.898C485.868 17.828 488.349 10.388 491.179 3.77802C491.949 1.98802 493.469 0.688017 495.369 0.198017C497.259 -0.281983 499.219 0.118017 500.749 1.31802C518.539 15.228 524.848 48.088 524.848 71.998C524.848 90.658 520.898 105.728 513.118 116.798C503.368 130.668 487.799 137.708 466.849 137.708ZM473.619 99.688C463.149 107.668 455.318 116.978 450.328 127.348C449.658 128.748 449.629 130.368 450.249 131.788C450.859 133.178 452.029 134.228 453.469 134.668C457.869 136.018 462.378 136.708 466.858 136.708C487.468 136.708 502.759 129.818 512.309 116.228C519.969 105.328 523.848 90.458 523.848 71.998C523.848 48.308 517.639 15.798 500.129 2.10802C498.849 1.10802 497.199 0.768017 495.619 1.16802C494.029 1.57802 492.739 2.66802 492.099 4.16802C489.239 10.828 486.749 18.348 484.699 26.508L484.599 26.888C480.519 43.428 481.879 56.768 488.659 66.538C495.289 76.088 507.189 82.088 523.089 83.868L523.069 84.868C506.569 86.128 487.789 88.868 473.619 99.678V99.688Z" fill="#B4D6C0"></path>
<path d="M533.469 95.5487C527.639 95.5487 522.889 90.7987 522.889 84.9687C522.889 79.1387 527.639 74.3887 533.469 74.3887C539.299 74.3887 544.049 79.1387 544.049 84.9687C544.049 90.7987 539.299 95.5487 533.469 95.5487ZM533.469 75.3887C528.189 75.3887 523.889 79.6887 523.889 84.9687C523.889 90.2487 528.189 94.5487 533.469 94.5487C538.749 94.5487 543.049 90.2487 543.049 84.9687C543.049 79.6887 538.749 75.3887 533.469 75.3887Z" fill="#B4D6C0"></path>
<path d="M600.419 137.708C579.469 137.708 563.899 130.678 554.149 116.798C546.369 105.728 542.419 90.6583 542.419 71.9983C542.419 48.0883 548.729 15.2283 566.519 1.31832C568.049 0.128323 570.009 -0.281677 571.899 0.198323C573.789 0.688323 575.319 1.98832 576.089 3.77832C578.919 10.3883 581.399 17.8283 583.439 25.8983L583.539 26.2783C587.809 43.2883 586.429 57.0283 579.429 67.1183C573.269 76.0083 562.699 81.8783 548.709 84.2583C564.209 85.7083 581.129 88.8983 594.239 98.8883C604.839 106.968 612.779 116.398 617.839 126.918C618.639 128.578 618.669 130.498 617.939 132.188C617.219 133.848 615.819 135.098 614.099 135.628C609.599 137.008 604.999 137.708 600.419 137.708ZM570.329 1.00832C569.179 1.00832 568.059 1.38832 567.139 2.10832C549.629 15.7983 543.419 48.3183 543.419 71.9983C543.419 90.4483 547.299 105.328 554.959 116.228C564.519 129.818 579.809 136.708 600.419 136.708C604.909 136.708 609.409 136.018 613.809 134.668C615.249 134.228 616.419 133.178 617.029 131.788C617.649 130.368 617.619 128.748 616.949 127.348C611.959 116.978 604.119 107.668 593.659 99.6883C579.489 88.8783 560.709 86.1383 544.209 84.8783L544.189 83.8783C560.089 82.0883 571.989 76.0983 578.619 66.5483C585.399 56.7683 586.759 43.4283 582.669 26.8683L582.569 26.5183C580.519 18.3483 578.029 10.8383 575.169 4.17832C574.529 2.67832 573.239 1.58832 571.649 1.17832C571.209 1.06832 570.769 1.00832 570.329 1.00832Z" fill="#B4D6C0"></path>
<path d="M347.229 137.718C346.709 137.718 346.179 137.648 345.659 137.518C343.769 137.028 342.239 135.728 341.469 133.938C338.639 127.328 336.159 119.888 334.119 111.818L334.019 111.438C329.749 94.4278 331.129 80.6878 338.129 70.5978C344.289 61.7078 354.859 55.8378 368.839 53.4578C353.339 52.0078 336.429 48.8178 323.309 38.8278C312.709 30.7478 304.769 21.3178 299.709 10.7978C298.909 9.13781 298.879 7.21781 299.609 5.52781C300.329 3.86781 301.729 2.61781 303.449 2.08781C307.949 0.707812 312.549 0.0078125 317.139 0.0078125C338.089 0.0078125 353.659 7.03781 363.409 20.9178C371.189 31.9878 375.139 47.0578 375.139 65.7178C375.139 89.6278 368.829 122.488 351.039 136.398C349.929 137.258 348.599 137.718 347.229 137.718ZM334.899 110.848L334.999 111.198C337.049 119.368 339.539 126.878 342.399 133.538C343.039 135.038 344.329 136.128 345.919 136.538C347.509 136.948 349.149 136.608 350.429 135.598C367.929 121.908 374.149 89.3878 374.149 65.7078C374.149 47.2578 370.269 32.3778 362.609 21.4778C353.059 7.88781 337.759 0.997813 317.149 0.997813C312.659 0.997813 308.159 1.68781 303.759 3.03781C302.319 3.47781 301.149 4.52781 300.539 5.91781C299.919 7.33781 299.949 8.95781 300.619 10.3578C305.609 20.7278 313.449 30.0378 323.909 38.0178C338.079 48.8278 356.859 51.5678 373.359 52.8278L373.379 53.8278C357.479 55.6178 345.579 61.6078 338.949 71.1578C332.169 80.9378 330.809 94.2878 334.899 110.838V110.848Z" fill="#B4D6C0"></path>
<path d="M383.759 63.3377C377.929 63.3377 373.179 58.5877 373.179 52.7577C373.179 46.9277 377.929 42.1777 383.759 42.1777C389.589 42.1777 394.339 46.9277 394.339 52.7577C394.339 58.5877 389.589 63.3377 383.759 63.3377ZM383.759 43.1777C378.479 43.1777 374.179 47.4777 374.179 52.7577C374.179 58.0377 378.479 62.3377 383.759 62.3377C389.039 62.3377 393.339 58.0377 393.339 52.7577C393.339 47.4777 389.039 43.1777 383.759 43.1777Z" fill="#B4D6C0"></path>
<path d="M420.619 137.718C419.249 137.718 417.919 137.268 416.809 136.398C399.019 122.488 392.709 89.6278 392.709 65.7178C392.709 47.0578 396.659 31.9878 404.439 20.9178C414.189 7.04781 429.759 0.0078125 450.709 0.0078125C455.289 0.0078125 459.899 0.707812 464.389 2.08781C466.109 2.61781 467.509 3.86781 468.229 5.52781C468.969 7.21781 468.929 9.13781 468.129 10.7978C463.069 21.3178 455.129 30.7478 444.529 38.8278C431.409 48.8278 414.499 52.0078 398.999 53.4578C412.989 55.8278 423.549 61.7078 429.719 70.5978C436.719 80.6878 438.099 94.4378 433.829 111.438L433.729 111.818C431.689 119.888 429.209 127.328 426.379 133.938C425.609 135.728 424.089 137.028 422.189 137.518C421.669 137.648 421.139 137.718 420.619 137.718ZM450.709 1.00781C430.099 1.00781 414.809 7.89781 405.249 21.4878C397.589 32.3878 393.709 47.2578 393.709 65.7178C393.709 89.4078 399.919 121.918 417.429 135.608C418.709 136.608 420.359 136.948 421.939 136.548C423.529 136.138 424.819 135.048 425.459 133.548C428.319 126.888 430.809 119.368 432.859 111.208L432.959 110.828C437.039 94.2878 435.679 80.9478 428.899 71.1778C422.269 61.6278 410.369 55.6278 394.469 53.8478L394.489 52.8478C410.989 51.5878 429.759 48.8478 443.939 38.0378C454.409 30.0578 462.239 20.7478 467.229 10.3778C467.899 8.97781 467.929 7.35781 467.309 5.93781C466.699 4.54781 465.529 3.49781 464.089 3.05781C459.689 1.70781 455.179 1.01781 450.699 1.01781L450.709 1.00781Z" fill="#B4D6C0"></path>
<path d="M478.339 21.1678C472.509 21.1678 467.759 16.4178 467.759 10.5878C467.759 4.75781 472.509 0.0078125 478.339 0.0078125C484.169 0.0078125 488.919 4.75781 488.919 10.5878C488.919 16.4178 484.169 21.1678 478.339 21.1678ZM478.339 1.00781C473.059 1.00781 468.759 5.30781 468.759 10.5878C468.759 15.8678 473.059 20.1678 478.339 20.1678C483.619 20.1678 487.919 15.8678 487.919 10.5878C487.919 5.30781 483.619 1.00781 478.339 1.00781Z" fill="#B4D6C0"></path>
<path d="M328.648 137.707C322.818 137.707 318.068 132.957 318.068 127.127C318.068 121.297 322.818 116.547 328.648 116.547C334.478 116.547 339.228 121.297 339.228 127.127C339.228 132.957 334.478 137.707 328.648 137.707ZM328.648 117.547C323.368 117.547 319.068 121.847 319.068 127.127C319.068 132.407 323.368 136.707 328.648 136.707C333.928 136.707 338.228 132.407 338.228 127.127C338.228 121.847 333.928 117.547 328.648 117.547Z" fill="#B4D6C0"></path>
<path d="M167.768 137.708C163.178 137.708 158.578 137.008 154.088 135.628C152.368 135.098 150.968 133.848 150.248 132.188C149.508 130.498 149.548 128.578 150.348 126.918C155.408 116.398 163.348 106.968 173.948 98.888C187.068 88.888 203.978 85.708 219.478 84.258C205.488 81.888 194.928 76.008 188.768 67.118C181.768 57.028 180.388 43.278 184.658 26.278L184.758 25.898C186.798 17.828 189.278 10.388 192.108 3.77802C192.878 1.98802 194.398 0.688017 196.298 0.198017C198.188 -0.281983 200.148 0.118017 201.678 1.31802C219.468 15.228 225.778 48.088 225.778 71.998C225.778 90.658 221.828 105.728 214.048 116.798C204.298 130.668 188.728 137.708 167.778 137.708H167.768ZM174.538 99.688C164.068 107.668 156.238 116.978 151.248 127.348C150.578 128.748 150.548 130.368 151.168 131.788C151.778 133.178 152.948 134.228 154.388 134.668C158.788 136.018 163.298 136.708 167.778 136.708C188.388 136.708 203.678 129.818 213.228 116.228C220.888 105.328 224.768 90.458 224.768 71.998C224.768 48.308 218.558 15.798 201.048 2.10802C199.768 1.10802 198.118 0.768017 196.538 1.16802C194.948 1.57802 193.658 2.66802 193.018 4.16802C190.158 10.828 187.668 18.348 185.618 26.508L185.518 26.888C181.438 43.428 182.798 56.768 189.578 66.538C196.208 76.098 208.108 82.088 224.008 83.868L223.988 84.868C207.488 86.128 188.718 88.868 174.538 99.678V99.688Z" fill="#B4D6C0"></path>
<path d="M234.389 95.5487C228.559 95.5487 223.809 90.7987 223.809 84.9687C223.809 79.1387 228.559 74.3887 234.389 74.3887C240.219 74.3887 244.969 79.1387 244.969 84.9687C244.969 90.7987 240.219 95.5487 234.389 95.5487ZM234.389 75.3887C229.109 75.3887 224.809 79.6887 224.809 84.9687C224.809 90.2487 229.109 94.5487 234.389 94.5487C239.669 94.5487 243.969 90.2487 243.969 84.9687C243.969 79.6887 239.669 75.3887 234.389 75.3887Z" fill="#B4D6C0"></path>
<path d="M301.339 137.708C280.389 137.708 264.819 130.678 255.069 116.798C247.289 105.728 243.339 90.6583 243.339 71.9983C243.339 48.0883 249.649 15.2283 267.439 1.31832C268.969 0.128323 270.929 -0.281677 272.819 0.198323C274.719 0.688323 276.239 1.98832 277.009 3.77832C279.849 10.3883 282.319 17.8283 284.359 25.8983L284.459 26.2783C288.729 43.2883 287.349 57.0283 280.349 67.1183C274.189 76.0083 263.619 81.8783 249.629 84.2583C265.129 85.7083 282.039 88.8983 295.159 98.8883C305.759 106.968 313.699 116.398 318.759 126.918C319.559 128.578 319.589 130.498 318.859 132.188C318.139 133.848 316.739 135.098 315.019 135.628C310.529 137.008 305.919 137.708 301.339 137.708ZM271.249 1.00832C270.099 1.00832 268.979 1.38832 268.059 2.10832C250.559 15.7983 244.339 48.3183 244.339 71.9983C244.339 90.4483 248.219 105.328 255.879 116.228C265.439 129.818 280.729 136.708 301.339 136.708C305.829 136.708 310.329 136.018 314.729 134.668C316.169 134.228 317.339 133.178 317.949 131.788C318.569 130.368 318.539 128.748 317.869 127.348C312.879 116.978 305.039 107.668 294.579 99.6883C280.409 88.8783 261.629 86.1383 245.129 84.8783L245.109 83.8783C261.009 82.0883 272.909 76.0983 279.539 66.5483C286.319 56.7683 287.679 43.4283 283.589 26.8683L283.489 26.5183C281.439 18.3583 278.949 10.8383 276.089 4.17832C275.449 2.67832 274.159 1.58832 272.569 1.17832C272.129 1.06832 271.689 1.00832 271.249 1.00832Z" fill="#B4D6C0"></path>
<path d="M48.1387 137.718C47.6187 137.718 47.0887 137.648 46.5687 137.518C44.6687 137.028 43.1487 135.728 42.3787 133.938C39.5387 127.328 37.0687 119.888 35.0287 111.818L34.9287 111.438C30.6587 94.4278 32.0387 80.6878 39.0387 70.5978C45.1987 61.7078 55.7687 55.8378 69.7587 53.4578C54.2587 52.0078 37.3487 48.8178 24.2287 38.8278C13.6287 30.7478 5.68869 21.3178 0.628692 10.7978C-0.171308 9.13781 -0.201308 7.21781 0.528692 5.52781C1.24869 3.86781 2.64869 2.61781 4.36869 2.08781C8.85869 0.707812 13.4687 0.0078125 18.0487 0.0078125C38.9987 0.0078125 54.5687 7.04781 64.3287 20.9178C72.1087 31.9878 76.0587 47.0578 76.0587 65.7178C76.0587 89.6278 69.7487 122.488 51.9587 136.398C50.8487 137.258 49.5187 137.718 48.1487 137.718H48.1387ZM35.8087 110.848L35.9087 111.198C37.9587 119.358 40.4487 126.878 43.3087 133.538C43.9487 135.038 45.2387 136.128 46.8287 136.538C48.4187 136.948 50.0587 136.608 51.3387 135.598C68.8487 121.908 75.0587 89.3878 75.0587 65.7078C75.0587 47.2578 71.1787 32.3778 63.5187 21.4778C53.9487 7.89781 38.6587 1.00781 18.0487 1.00781C13.5587 1.00781 9.05869 1.69781 4.65869 3.04781C3.21869 3.48781 2.04869 4.53781 1.43869 5.92781C0.818692 7.34781 0.848692 8.96781 1.51869 10.3678C6.50869 20.7378 14.3487 30.0478 24.8087 38.0278C38.9787 48.8378 57.7587 51.5778 74.2587 52.8378L74.2787 53.8378C58.3787 55.6278 46.4787 61.6178 39.8487 71.1678C33.0687 80.9478 31.7087 94.2878 35.7987 110.848H35.8087Z" fill="#B4D6C0"></path>
<path d="M84.6786 63.3377C78.8486 63.3377 74.0986 58.5877 74.0986 52.7577C74.0986 46.9277 78.8486 42.1777 84.6786 42.1777C90.5086 42.1777 95.2586 46.9277 95.2586 52.7577C95.2586 58.5877 90.5086 63.3377 84.6786 63.3377ZM84.6786 43.1777C79.3986 43.1777 75.0986 47.4777 75.0986 52.7577C75.0986 58.0377 79.3986 62.3377 84.6786 62.3377C89.9586 62.3377 94.2586 58.0377 94.2586 52.7577C94.2586 47.4777 89.9586 43.1777 84.6786 43.1777Z" fill="#B4D6C0"></path>
<path d="M121.539 137.718C120.169 137.718 118.839 137.268 117.729 136.398C99.9389 122.488 93.6289 89.6278 93.6289 65.7178C93.6289 47.0578 97.5789 31.9878 105.359 20.9178C115.109 7.04781 130.679 0.0078125 151.629 0.0078125C156.209 0.0078125 160.819 0.707812 165.309 2.08781C167.029 2.61781 168.429 3.86781 169.149 5.52781C169.889 7.21781 169.849 9.13781 169.049 10.7978C163.989 21.3178 156.049 30.7478 145.449 38.8278C132.329 48.8278 115.419 52.0078 99.9189 53.4578C113.909 55.8278 124.469 61.7078 130.629 70.5978C137.629 80.6878 139.009 94.4378 134.739 111.438L134.639 111.818C132.599 119.888 130.119 127.328 127.289 133.938C126.519 135.728 124.999 137.028 123.099 137.518C122.579 137.648 122.049 137.718 121.529 137.718H121.539ZM151.629 1.00781C131.019 1.00781 115.729 7.89781 106.169 21.4878C98.5089 32.3878 94.6289 47.2578 94.6289 65.7178C94.6289 89.4078 100.839 121.918 118.349 135.608C119.629 136.608 121.279 136.948 122.859 136.548C124.449 136.138 125.739 135.048 126.379 133.548C129.239 126.888 131.729 119.368 133.779 111.208L133.879 110.828C137.959 94.2878 136.599 80.9478 129.819 71.1778C123.189 61.6178 111.289 55.6278 95.3889 53.8478L95.4089 52.8478C111.909 51.5878 130.679 48.8478 144.859 38.0378C155.329 30.0578 163.159 20.7478 168.149 10.3778C168.819 8.97781 168.849 7.35781 168.229 5.93781C167.619 4.54781 166.449 3.49781 165.009 3.05781C160.609 1.70781 156.099 1.01781 151.619 1.01781L151.629 1.00781Z" fill="#B4D6C0"></path>
<path d="M179.259 21.1678C173.429 21.1678 168.679 16.4178 168.679 10.5878C168.679 4.75781 173.419 0.0078125 179.259 0.0078125C185.099 0.0078125 189.839 4.75781 189.839 10.5878C189.839 16.4178 185.089 21.1678 179.259 21.1678ZM179.259 1.00781C173.979 1.00781 169.679 5.30781 169.679 10.5878C169.679 15.8678 173.979 20.1678 179.259 20.1678C184.539 20.1678 188.839 15.8678 188.839 10.5878C188.839 5.30781 184.539 1.00781 179.259 1.00781Z" fill="#B4D6C0"></path>
<path d="M29.5683 137.707C23.7383 137.707 18.9883 132.957 18.9883 127.127C18.9883 121.297 23.7383 116.547 29.5683 116.547C35.3983 116.547 40.1483 121.297 40.1483 127.127C40.1483 132.957 35.3983 137.707 29.5683 137.707ZM29.5683 117.547C24.2883 117.547 19.9883 121.847 19.9883 127.127C19.9883 132.407 24.2883 136.707 29.5683 136.707C34.8483 136.707 39.1483 132.407 39.1483 127.127C39.1483 121.847 34.8483 117.547 29.5683 117.547Z" fill="#B4D6C0"></path>
</svg>