<?xml version="1.0" encoding="UTF-8"?>
<svg xmlns="http://www.w3.org/2000/svg" version="1.1" viewBox="0 0 216 216">
  <defs>
    <style>
      .cls-1, .cls-2 {
        isolation: isolate;
        opacity: .8;
      }

      .cls-3, .cls-2 {
        fill: #f5f6e7;
        fill-rule: evenodd;
      }

      .cls-3, .cls-2, .cls-4 {
        stroke-width: 0px;
      }

      .cls-4 {
        fill: #254e48;
      }
    </style>
  </defs>
  <g id="Layer_3" data-name="Layer 3">
    <rect class="cls-4" x="0" width="216" height="216"/>
  </g>
  <g id="Layer_2" data-name="Layer 2">
    <g id="Layer_1-2" data-name="Layer 1-2">
      <g>
        <path class="cls-2" d="M180,105.7c0,18.4-14.9,37.8-33.3,37.8-26.4,0-33.3-19.4-33.3-37.8s6.4-44.5,24.8-44.5,41.9,26.1,41.9,44.5h0Z"/>
        <path class="cls-2" d="M36,105.7c0,18.4,14.9,37.8,33.3,37.8,26.4,0,33.3-19.4,33.3-37.8s-6.4-44.5-24.8-44.5-41.9,26.1-41.9,44.5h0Z"/>
        <path class="cls-2" d="M73,121.9c8.1-6.1,18.5-7.9,29.2-8.7h0c0,3.2,2.6,5.8,5.7,5.8s5.7-2.6,5.7-5.7c0,9.8-.5,30.1-7.5,39.2-15.1,19.6-36.7,21.7-45,13.4s-7.8-29.1,11.9-44.1h0Z"/>
        <g class="cls-1">
          <path class="cls-3" d="M102.3,112.9h0v.4c0-.1,0-.3,0-.4h0Z"/>
          <path class="cls-3" d="M142.9,121.9c-8.1-6.1-18.5-7.9-29.2-8.7h0c0,3.2-2.6,5.8-5.7,5.8s-5.7-2.6-5.7-5.7c0,9.8.5,30.1,7.5,39.2,15.1,19.6,36.7,21.7,45,13.4s7.8-29.1-11.9-44.1h0Z"/>
        </g>
        <path class="cls-2" d="M136.6,79.3c-4.9-19.5-14.4-33.8-28.4-33.8h0c0,0-.1,0-.2,0,0,0-.1,0-.2,0h0c-14.1,0-23.5,14.4-28.4,33.8-5.6,22.1,6.2,31.9,22.9,33.6.2-3,2.7-5.3,5.7-5.3s5.5,2.3,5.7,5.3c16.7-1.7,28.5-11.5,22.9-33.6h0Z"/>
      </g>
    </g>
  </g>
</svg>