<?xml version="1.0" encoding="UTF-8"?>
<svg id="Layer_2" xmlns="http://www.w3.org/2000/svg" viewBox="0 0 1017.88 129.6">
  <defs>
    <style>
      .cls-1 {
        isolation: isolate;
      }

      .cls-1, .cls-2 {
        fill: #f5f6e7;
        fill-rule: evenodd;
      }

      .cls-1, .cls-3 {
        opacity: .8;
      }

      .cls-4 {
        fill: #254e48;
      }
    </style>
  </defs>
  <g id="Layer_1-2" data-name="Layer_1">
    <g>
      <g>
        <path class="cls-4" d="M184.47,94.74v-58.18c-.86,0-2.62.17-5.3.51l-16.77,2.14v-4.36h49.96v4.36l-16.77-2.14c-2.68-.34-4.45-.51-5.3-.51v58.18h-5.82Z"/>
        <path class="cls-4" d="M226.23,94.74v-59.89h5.82v27.72h35.93v-27.72h5.82v59.89h-5.82v-30.12h-35.93v30.12h-5.82Z"/>
        <path class="cls-4" d="M296.04,94.74v-59.89h26.1v4.19l-14.97-1.97c-2.62-.34-4.39-.51-5.3-.51v26.09c.74,0,2.51-.09,5.3-.26l14.03-.86v3.94l-14.03-.86c-2.8-.17-4.56-.26-5.3-.26v28.66c1.03,0,2.82-.17,5.39-.51l15.14-1.97v4.19h-26.35Z"/>
        <path class="cls-4" d="M355.07,34.85h6.25l20.96,52.36h.51l13.69-33.88-7.44-18.48h6.25l20.88,52.19h.51l17.28-52.19h6.25l-24.64,61.09h-1.88l-16-39.78-16.08,39.78h-1.88l-24.64-61.09Z"/>
        <path class="cls-4" d="M453.55,94.74v-59.89h5.82v27.72h35.93v-27.72h5.82v59.89h-5.82v-30.12h-35.93v30.12h-5.82Z"/>
        <path class="cls-4" d="M523.36,94.74v-59.89h5.82v59.89h-5.82Z"/>
        <path class="cls-4" d="M565.11,94.74v-58.18c-.86,0-2.62.17-5.3.51l-16.77,2.14v-4.36h49.96v4.36l-16.77-2.14c-2.68-.34-4.45-.51-5.3-.51v58.18h-5.82Z"/>
        <path class="cls-4" d="M606.87,94.74v-59.89h26.1v4.19l-14.97-1.97c-2.62-.34-4.39-.51-5.3-.51v26.09c.74,0,2.51-.09,5.3-.26l14.03-.86v3.94l-14.03-.86c-2.8-.17-4.56-.26-5.3-.26v28.66c1.03,0,2.82-.17,5.39-.51l15.14-1.97v4.19h-26.35Z"/>
        <path class="cls-4" d="M670.01,64.8c0-4.39.78-8.48,2.35-12.28,1.57-3.79,3.76-7.1,6.59-9.92s6.13-5.02,9.92-6.59c3.79-1.57,7.88-2.35,12.28-2.35s8.48.78,12.28,2.35c3.79,1.57,7.1,3.76,9.92,6.59s5.02,6.13,6.59,9.92c1.57,3.79,2.35,7.89,2.35,12.28s-.78,8.49-2.35,12.28c-1.57,3.79-3.76,7.1-6.59,9.92s-6.13,5.02-9.92,6.59c-3.79,1.57-7.89,2.35-12.28,2.35s-8.48-.79-12.28-2.35c-3.79-1.57-7.1-3.76-9.92-6.59s-5.02-6.13-6.59-9.92c-1.57-3.79-2.35-7.88-2.35-12.28ZM676.51,64.8c0,5.82,1.03,10.91,3.08,15.27,2.05,4.36,4.93,7.76,8.64,10.18,3.71,2.43,8.01,3.64,12.92,3.64s9.21-1.21,12.92-3.64c3.71-2.42,6.59-5.83,8.64-10.22,2.05-4.39,3.08-9.47,3.08-15.23s-1.03-10.82-3.08-15.19-4.93-7.77-8.64-10.22c-3.71-2.45-8.01-3.68-12.92-3.68s-9.2,1.21-12.88,3.64c-3.68,2.42-6.56,5.82-8.64,10.18-2.08,4.36-3.12,9.45-3.12,15.27Z"/>
        <path class="cls-4" d="M750.26,34.85h11.46c6.04,0,10.74,1.27,14.07,3.81,3.34,2.54,5,6.09,5,10.65,0,3.54-1.04,6.47-3.12,8.81-2.08,2.34-5.09,3.91-9.03,4.71v.51c3.76.74,6.84,2.51,9.24,5.3,2.4,2.79,4.19,6.25,5.39,10.35,1.08,3.76,2.15,6.69,3.21,8.77,1.05,2.08,2.22,3.58,3.51,4.49,1.28.91,2.81,1.57,4.58,1.97v.51h-3.51c-2.51,0-4.58-.46-6.2-1.37-1.63-.91-3.01-2.45-4.15-4.62-1.14-2.17-2.22-5.16-3.25-8.98-1.66-5.87-3.85-10.04-6.59-12.49-2.74-2.45-6.08-3.68-10.01-3.68h-.51v-1.54h.51c9.18,0,13.77-4.22,13.77-12.66s-4.31-12.49-12.92-12.49h-5.65v57.84h-5.82v-59.89Z"/>
        <path class="cls-4" d="M851.22,87.39l-.51,5.22c-1.6.68-3.54,1.28-5.82,1.8-2.28.51-4.59.9-6.93,1.15-2.34.26-4.42.39-6.25.39-4.62,0-8.9-.79-12.83-2.35-3.94-1.57-7.37-3.75-10.31-6.54-2.94-2.79-5.23-6.09-6.89-9.88-1.66-3.79-2.48-7.91-2.48-12.36s.83-8.57,2.48-12.36c1.65-3.79,3.95-7.09,6.89-9.88,2.94-2.79,6.37-4.98,10.31-6.54,3.94-1.57,8.21-2.35,12.83-2.35,1.88,0,3.99.14,6.33.43,2.34.29,4.62.67,6.84,1.16,2.22.49,4.11,1.04,5.65,1.67l-.43,4.79h-.51c-2.11-1.94-4.76-3.42-7.96-4.45-3.2-1.03-6.5-1.54-9.92-1.54-5.13,0-9.65,1.21-13.56,3.64-3.91,2.42-6.96,5.82-9.16,10.18-2.2,4.36-3.29,9.45-3.29,15.27s1.1,10.98,3.29,15.32c2.2,4.33,5.23,7.71,9.11,10.14,3.88,2.43,8.41,3.64,13.6,3.64,3.88,0,7.49-.63,10.82-1.88,3.34-1.25,6.06-2.79,8.17-4.62h.51Z"/>
        <path class="cls-4" d="M868.33,94.74v-59.89h5.82v27.72h35.93v-27.72h5.82v59.89h-5.82v-30.12h-35.93v30.12h-5.82Z"/>
        <path class="cls-4" d="M938.14,94.74v-59.89h5.82v59.89h-5.82Z"/>
        <path class="cls-4" d="M966.2,94.74v-59.89h18.82c6.62,0,12.38,1.26,17.28,3.76,4.91,2.51,8.73,6,11.46,10.48,2.74,4.48,4.11,9.71,4.11,15.7s-1.37,11.22-4.11,15.7c-2.74,4.48-6.56,7.97-11.46,10.48-4.91,2.51-10.67,3.76-17.28,3.76h-18.82ZM985.03,36.91h-13v55.78h13c8.27,0,14.73-2.45,19.38-7.36,4.65-4.91,6.97-11.75,6.97-20.53s-2.33-15.63-6.97-20.53c-4.65-4.91-11.11-7.36-19.38-7.36Z"/>
      </g>
      <g>
        <circle class="cls-4" cx="64.8" cy="64.8" r="64.8"/>
        <g id="Layer_1-2">
          <g>
            <path class="cls-1" d="M108,63.42c0,11.04-8.95,22.66-19.99,22.66-15.86,0-19.99-11.63-19.99-22.66s3.82-26.7,14.85-26.7,25.12,15.66,25.12,26.7h0Z"/>
            <path class="cls-1" d="M21.6,63.42c0,11.04,8.95,22.66,19.99,22.66,15.86,0,19.99-11.63,19.99-22.66s-3.81-26.69-14.85-26.69-25.12,15.66-25.12,26.69Z"/>
            <path class="cls-1" d="M43.83,73.15c4.83-3.68,11.11-4.73,17.52-5.2v.04c0,1.9,1.54,3.44,3.44,3.44s3.43-1.53,3.44-3.42c0,5.88-.3,18.05-4.52,23.54-9.04,11.75-22.01,13-27,8.02-4.98-4.98-4.65-17.46,7.12-26.43h0Z"/>
            <g class="cls-3">
              <path class="cls-2" d="M61.38,67.73h-.01v.24c0-.08,0-.17.01-.25h0Z"/>
              <path class="cls-2" d="M85.76,73.15c-4.83-3.68-11.11-4.73-17.52-5.2v.04c0,1.9-1.54,3.44-3.44,3.44s-3.43-1.53-3.44-3.42c0,5.88.3,18.05,4.52,23.54,9.04,11.75,22.01,13,27,8.02,4.98-4.98,4.65-17.46-7.12-26.43h0Z"/>
            </g>
            <path class="cls-1" d="M81.98,47.57c-2.93-11.69-8.61-20.31-17.05-20.31h-.02s-.07,0-.1,0c-.03,0-.07,0-.1,0h-.02c-8.44,0-14.12,8.61-17.06,20.31-3.33,13.27,3.73,19.15,13.75,20.19.13-1.79,1.61-3.2,3.43-3.2s3.3,1.41,3.43,3.2c10.02-1.04,17.07-6.92,13.74-20.18h0Z"/>
          </g>
        </g>
      </g>
    </g>
  </g>
</svg>