<?xml version="1.0" encoding="UTF-8"?>
<svg id="Layer_2" xmlns="http://www.w3.org/2000/svg" viewBox="0 0 289 251.25">
  <defs>
    <style>
      .cls-1, .cls-2 {
        fill: #ddc5d8;
      }

      .cls-2 {
        isolation: isolate;
      }

      .cls-3 {
        fill: #254e48;
      }
    </style>
  </defs>
  <g id="Layer_1-2" data-name="Layer_1">
    <g>
      <g id="Layer_1-2">
        <g>
          <path class="cls-2" d="M221.87,197.07c-24.25,0-42.26-8.14-53.55-24.19-9-12.81-13.57-30.26-13.57-51.86s4.01-42.63,11-58.49c8.94-20.28,22.43-31,39.01-31s38.15,11.54,56.03,30.86c17.39,18.79,28.2,41.26,28.2,58.63v.5c-.14,18.04-7.28,36.75-19.64,51.39-13.14,15.58-30.01,24.15-47.49,24.15ZM204.77,32.53c-38.77,0-49.02,57.88-49.02,88.49,0,21.39,4.5,38.65,13.39,51.28,11.09,15.77,28.83,23.76,52.73,23.76,17.18,0,33.78-8.45,46.72-23.8,12.32-14.61,19.39-33.29,19.39-51.25v-.5c-.2-17.06-10.86-39.02-27.92-57.45-17.7-19.12-38.37-30.54-55.29-30.54Z"/>
          <path class="cls-2" d="M67.12,197.07c-17.48,0-34.35-8.58-47.49-24.15C7.15,158.13,0,139.22,0,121.02s10.81-39.83,28.2-58.63c17.88-19.32,38.83-30.85,56.03-30.85s30.07,10.72,39.01,30.99c6.99,15.86,11,37.18,11,58.49s-4.57,39.05-13.57,51.86c-11.28,16.05-29.3,24.19-53.55,24.19ZM84.23,32.54c-16.93,0-37.6,11.41-55.29,30.53C11.7,81.69,1,103.89,1,121.02s7.07,36.64,19.39,51.25c12.95,15.35,29.54,23.8,46.72,23.8,23.9,0,41.64-8,52.73-23.76,8.88-12.64,13.39-29.89,13.39-51.28s-3.98-42.35-10.91-58.09c-6.11-13.87-17.68-30.39-38.09-30.39Z"/>
          <path class="cls-2" d="M77.02,251.25c-10.96,0-20.47-3.32-26.49-9.33-7.33-7.33-11.04-19.07-10.15-32.2,1.38-20.61,13.75-41.26,33.93-56.65h0c16.77-12.78,39.06-15.98,58.66-17.43l.54-.04v.68c0,6.05,4.92,10.97,10.97,10.97s10.92-4.89,10.97-10.9h1c-.06,39.82-5.03,65.59-15.17,78.79-16.5,21.44-38.59,34.56-60.62,36-1.23.08-2.44.12-3.63.12ZM74.9,153.87c-19.94,15.21-32.16,35.59-33.53,55.91-.86,12.84,2.73,24.3,9.86,31.43,6.47,6.46,17.16,9.72,29.35,8.92,21.74-1.42,43.57-14.39,59.89-35.61,13.51-17.56,14.81-55.68,14.95-73.44-1.86,4.21-6.08,7.16-10.95,7.16-6.47,0-11.75-5.16-11.96-11.57-19.33,1.46-41.2,4.69-57.61,17.2h0Z"/>
          <g>
            <path class="cls-1" d="M133.54,136.2h-1v-1.31h.5l.04.47.5.02-.03.5c0,.11,0,.21,0,.32Z"/>
            <path class="cls-1" d="M211.96,251.25c-1.19,0-2.4-.04-3.63-.12-22.03-1.43-44.12-14.55-60.62-36-10.15-13.2-15.12-38.97-15.17-78.78h1c.05,6,4.97,10.89,10.97,10.89s10.97-4.92,10.97-10.97v-.68l.54.04c19.6,1.45,41.89,4.66,58.66,17.43h0c20.18,15.39,32.55,36.03,33.93,56.65.88,13.13-2.82,24.87-10.15,32.2-6.01,6.01-15.53,9.33-26.49,9.33ZM133.57,141.12c.67,54.85,11.36,68.75,14.94,73.41,16.32,21.21,38.15,34.19,59.89,35.61,12.18.79,22.88-2.46,29.35-8.92,7.13-7.13,10.73-18.58,9.86-31.43-1.36-20.32-13.58-40.7-33.53-55.91h0c-16.41-12.51-38.28-15.74-57.61-17.2-.21,6.42-5.5,11.57-11.96,11.57-4.86,0-9.07-2.93-10.94-7.13Z"/>
          </g>
          <path class="cls-2" d="M133.56,136.02l-.51-.05c-19.09-1.97-33.42-9.06-41.42-20.49-8.19-11.69-9.82-27.64-4.86-47.42C97.79,24.17,118.16,0,144.11,0c.14,0,.21,0,.28.01.04,0,.08,0,.12,0,.08,0,.21-.02.33-.02,25.95,0,46.27,24.03,57.31,67.69h0l.1.38c4.96,19.76,3.33,35.71-4.85,47.4-8,11.43-22.31,18.52-41.39,20.5l-.51.05-.04-.52c-.4-5.71-5.21-10.19-10.93-10.19s-10.53,4.48-10.93,10.2l-.04.52ZM144.17,1c-25.52,0-45.54,23.9-56.44,67.31-4.89,19.48-3.31,35.15,4.71,46.6,7.77,11.09,21.66,18.01,40.2,20.02.68-5.99,5.81-10.61,11.88-10.61s11.2,4.62,11.88,10.6c18.53-2.02,32.41-8.94,40.17-20.02,7.96-11.37,9.57-26.92,4.79-46.23l-.1-.36C190.37,24.9,170.36,1,144.91,1c-.17,0-.26,0-.35.02-.11,0-.19,0-.26,0-.04,0-.08,0-.12,0Z"/>
        </g>
      </g>
      <g>
        <path class="cls-3" d="M102.44,82.21v-40.8c-.6,0-1.84.12-3.72.36l-11.76,1.5v-3.06h35.04v3.06l-11.76-1.5c-1.88-.24-3.12-.36-3.72-.36v40.8h-4.08Z"/>
        <path class="cls-3" d="M131.72,82.21v-42h4.08v19.44h25.2v-19.44h4.08v42h-4.08v-21.12h-25.2v21.12h-4.08Z"/>
        <path class="cls-3" d="M180.68,82.21v-42h18.3v2.94l-10.5-1.38c-1.84-.24-3.08-.36-3.72-.36v18.3c.52,0,1.76-.06,3.72-.18l9.84-.6v2.76l-9.84-.6c-1.96-.12-3.2-.18-3.72-.18v20.1c.72,0,1.98-.12,3.78-.36l10.62-1.38v2.94h-18.48Z"/>
        <path class="cls-3" d="M45.53,104.21h4.38l14.7,36.72h.36l9.6-23.76-5.22-12.96h4.38l14.64,36.6h.36l12.12-36.6h4.38l-17.28,42.84h-1.32l-11.22-27.9-11.28,27.9h-1.32l-17.28-42.84Z"/>
        <path class="cls-3" d="M114.59,146.21v-42h4.08v19.44h25.2v-19.44h4.08v42h-4.08v-21.12h-25.2v21.12h-4.08Z"/>
        <path class="cls-3" d="M163.55,146.21v-42h4.08v42h-4.08Z"/>
        <path class="cls-3" d="M192.83,146.21v-40.8c-.6,0-1.84.12-3.72.36l-11.76,1.5v-3.06h35.04v3.06l-11.76-1.5c-1.88-.24-3.12-.36-3.72-.36v40.8h-4.08Z"/>
        <path class="cls-3" d="M222.11,146.21v-42h18.3v2.94l-10.5-1.38c-1.84-.24-3.08-.36-3.72-.36v18.3c.52,0,1.76-.06,3.72-.18l9.84-.6v2.76l-9.84-.6c-1.96-.12-3.2-.18-3.72-.18v20.1c.72,0,1.98-.12,3.78-.36l10.62-1.38v2.94h-18.48Z"/>
        <path class="cls-3" d="M22.52,189.21c0-3.08.55-5.95,1.65-8.61,1.1-2.66,2.64-4.98,4.62-6.96,1.98-1.98,4.3-3.52,6.96-4.62,2.66-1.1,5.53-1.65,8.61-1.65s5.95.55,8.61,1.65c2.66,1.1,4.98,2.64,6.96,4.62,1.98,1.98,3.52,4.3,4.62,6.96,1.1,2.66,1.65,5.53,1.65,8.61s-.55,5.95-1.65,8.61c-1.1,2.66-2.64,4.98-4.62,6.96-1.98,1.98-4.3,3.52-6.96,4.62-2.66,1.1-5.53,1.65-8.61,1.65s-5.95-.55-8.61-1.65-4.98-2.64-6.96-4.62c-1.98-1.98-3.52-4.3-4.62-6.96-1.1-2.66-1.65-5.53-1.65-8.61ZM27.08,189.21c0,4.08.72,7.65,2.16,10.71,1.44,3.06,3.46,5.44,6.06,7.14,2.6,1.7,5.62,2.55,9.06,2.55s6.46-.85,9.06-2.55c2.6-1.7,4.62-4.09,6.06-7.17s2.16-6.64,2.16-10.68-.72-7.59-2.16-10.65-3.46-5.45-6.06-7.17c-2.6-1.72-5.62-2.58-9.06-2.58s-6.45.85-9.03,2.55-4.6,4.08-6.06,7.14c-1.46,3.06-2.19,6.63-2.19,10.71Z"/>
        <path class="cls-3" d="M78.8,168.21h8.04c4.24,0,7.53.89,9.87,2.67s3.51,4.27,3.51,7.47c0,2.48-.73,4.54-2.19,6.18-1.46,1.64-3.57,2.74-6.33,3.3v.36c2.64.52,4.8,1.76,6.48,3.72,1.68,1.96,2.94,4.38,3.78,7.26.76,2.64,1.51,4.69,2.25,6.15.74,1.46,1.56,2.51,2.46,3.15.9.64,1.97,1.1,3.21,1.38v.36h-2.46c-1.76,0-3.21-.32-4.35-.96-1.14-.64-2.11-1.72-2.91-3.24-.8-1.52-1.56-3.62-2.28-6.3-1.16-4.12-2.7-7.04-4.62-8.76-1.92-1.72-4.26-2.58-7.02-2.58h-.36v-1.08h.36c6.44,0,9.66-2.96,9.66-8.88s-3.02-8.76-9.06-8.76h-3.96v40.56h-4.08v-42Z"/>
        <path class="cls-3" d="M149.6,205.05l-.36,3.66c-1.12.48-2.48.9-4.08,1.26-1.6.36-3.22.63-4.86.81-1.64.18-3.1.27-4.38.27-3.24,0-6.24-.55-9-1.65-2.76-1.1-5.17-2.63-7.23-4.59-2.06-1.96-3.67-4.27-4.83-6.93s-1.74-5.55-1.74-8.67.58-6.01,1.74-8.67,2.77-4.97,4.83-6.93c2.06-1.96,4.47-3.49,7.23-4.59,2.76-1.1,5.76-1.65,9-1.65,1.32,0,2.8.1,4.44.3,1.64.2,3.24.47,4.8.81,1.56.34,2.88.73,3.96,1.17l-.3,3.36h-.36c-1.48-1.36-3.34-2.4-5.58-3.12-2.24-.72-4.56-1.08-6.96-1.08-3.6,0-6.77.85-9.51,2.55s-4.88,4.08-6.42,7.14c-1.54,3.06-2.31,6.63-2.31,10.71s.77,7.7,2.31,10.74c1.54,3.04,3.67,5.41,6.39,7.11,2.72,1.7,5.9,2.55,9.54,2.55,2.72,0,5.25-.44,7.59-1.32s4.25-1.96,5.73-3.24h.36Z"/>
        <path class="cls-3" d="M161.6,210.21v-42h4.08v19.44h25.2v-19.44h4.08v42h-4.08v-21.12h-25.2v21.12h-4.08Z"/>
        <path class="cls-3" d="M210.56,210.21v-42h4.08v42h-4.08Z"/>
        <path class="cls-3" d="M230.24,210.21v-42h13.2c4.64,0,8.68.88,12.12,2.64,3.44,1.76,6.12,4.21,8.04,7.35s2.88,6.81,2.88,11.01-.96,7.87-2.88,11.01-4.6,5.59-8.04,7.35c-3.44,1.76-7.48,2.64-12.12,2.64h-13.2ZM243.44,169.65h-9.12v39.12h9.12c5.8,0,10.33-1.72,13.59-5.16,3.26-3.44,4.89-8.24,4.89-14.4s-1.63-10.96-4.89-14.4c-3.26-3.44-7.79-5.16-13.59-5.16Z"/>
      </g>
    </g>
  </g>
</svg>