<?xml version="1.0" encoding="UTF-8"?>
<svg id="Layer_2" xmlns="http://www.w3.org/2000/svg" viewBox="0 0 1020.78 115.13">
  <defs>
    <style>
      .cls-1 {
        isolation: isolate;
      }

      .cls-1, .cls-2, .cls-3 {
        fill: #f5f6e7;
      }

      .cls-1, .cls-3 {
        fill-rule: evenodd;
      }

      .cls-1, .cls-4 {
        opacity: .8;
      }
    </style>
  </defs>
  <g id="Layer_1-2" data-name="Layer_1">
    <g>
      <g>
        <path class="cls-2" d="M187.37,87.51V29.33c-.86,0-2.62.17-5.3.51l-16.77,2.14v-4.36h49.96v4.36l-16.77-2.14c-2.68-.34-4.45-.51-5.3-.51v58.18h-5.82Z"/>
        <path class="cls-2" d="M229.13,87.51V27.62h5.82v27.72h35.93v-27.72h5.82v59.89h-5.82v-30.12h-35.93v30.12h-5.82Z"/>
        <path class="cls-2" d="M298.94,87.51V27.62h26.1v4.19l-14.97-1.97c-2.62-.34-4.39-.51-5.3-.51v26.09c.74,0,2.51-.09,5.3-.26l14.03-.86v3.94l-14.03-.86c-2.8-.17-4.56-.26-5.3-.26v28.66c1.03,0,2.82-.17,5.39-.51l15.14-1.97v4.19h-26.35Z"/>
        <path class="cls-2" d="M357.97,27.62h6.25l20.96,52.36h.51l13.69-33.88-7.44-18.48h6.25l20.88,52.19h.51l17.28-52.19h6.25l-24.64,61.09h-1.88l-16-39.78-16.08,39.78h-1.88l-24.64-61.09Z"/>
        <path class="cls-2" d="M456.45,87.51V27.62h5.82v27.72h35.93v-27.72h5.82v59.89h-5.82v-30.12h-35.93v30.12h-5.82Z"/>
        <path class="cls-2" d="M526.26,87.51V27.62h5.82v59.89h-5.82Z"/>
        <path class="cls-2" d="M568.01,87.51V29.33c-.86,0-2.62.17-5.3.51l-16.77,2.14v-4.36h49.96v4.36l-16.77-2.14c-2.68-.34-4.45-.51-5.3-.51v58.18h-5.82Z"/>
        <path class="cls-2" d="M609.77,87.51V27.62h26.1v4.19l-14.97-1.97c-2.62-.34-4.39-.51-5.3-.51v26.09c.74,0,2.51-.09,5.3-.26l14.03-.86v3.94l-14.03-.86c-2.8-.17-4.56-.26-5.3-.26v28.66c1.03,0,2.82-.17,5.39-.51l15.14-1.97v4.19h-26.35Z"/>
        <path class="cls-2" d="M672.91,57.56c0-4.39.78-8.48,2.35-12.28,1.57-3.79,3.76-7.1,6.59-9.92s6.13-5.02,9.92-6.59c3.79-1.57,7.88-2.35,12.28-2.35s8.48.78,12.28,2.35c3.79,1.57,7.1,3.76,9.92,6.59s5.02,6.13,6.59,9.92c1.57,3.79,2.35,7.89,2.35,12.28s-.78,8.49-2.35,12.28c-1.57,3.79-3.76,7.1-6.59,9.92s-6.13,5.02-9.92,6.59c-3.79,1.57-7.89,2.35-12.28,2.35s-8.48-.79-12.28-2.35c-3.79-1.57-7.1-3.76-9.92-6.59s-5.02-6.13-6.59-9.92c-1.57-3.79-2.35-7.88-2.35-12.28ZM679.41,57.56c0,5.82,1.03,10.91,3.08,15.27,2.05,4.36,4.93,7.76,8.64,10.18,3.71,2.43,8.01,3.64,12.92,3.64s9.21-1.21,12.92-3.64c3.71-2.42,6.59-5.83,8.64-10.22,2.05-4.39,3.08-9.47,3.08-15.23s-1.03-10.82-3.08-15.19-4.93-7.77-8.64-10.22c-3.71-2.45-8.01-3.68-12.92-3.68s-9.2,1.21-12.88,3.64c-3.68,2.42-6.56,5.82-8.64,10.18-2.08,4.36-3.12,9.45-3.12,15.27Z"/>
        <path class="cls-2" d="M753.16,27.62h11.46c6.04,0,10.74,1.27,14.07,3.81,3.34,2.54,5,6.09,5,10.65,0,3.54-1.04,6.47-3.12,8.81-2.08,2.34-5.09,3.91-9.03,4.71v.51c3.76.74,6.84,2.51,9.24,5.3,2.4,2.79,4.19,6.25,5.39,10.35,1.08,3.76,2.15,6.69,3.21,8.77,1.05,2.08,2.22,3.58,3.51,4.49,1.28.91,2.81,1.57,4.58,1.97v.51h-3.51c-2.51,0-4.58-.46-6.2-1.37-1.63-.91-3.01-2.45-4.15-4.62-1.14-2.17-2.22-5.16-3.25-8.98-1.66-5.87-3.85-10.04-6.59-12.49-2.74-2.45-6.08-3.68-10.01-3.68h-.51v-1.54h.51c9.18,0,13.77-4.22,13.77-12.66s-4.31-12.49-12.92-12.49h-5.65v57.84h-5.82V27.62Z"/>
        <path class="cls-2" d="M854.12,80.15l-.51,5.22c-1.6.68-3.54,1.28-5.82,1.8-2.28.51-4.59.9-6.93,1.15-2.34.26-4.42.39-6.25.39-4.62,0-8.9-.79-12.83-2.35-3.94-1.57-7.37-3.75-10.31-6.54-2.94-2.79-5.23-6.09-6.89-9.88-1.66-3.79-2.48-7.91-2.48-12.36s.83-8.57,2.48-12.36c1.65-3.79,3.95-7.09,6.89-9.88,2.94-2.79,6.37-4.98,10.31-6.54,3.94-1.57,8.21-2.35,12.83-2.35,1.88,0,3.99.14,6.33.43,2.34.29,4.62.67,6.84,1.16,2.22.49,4.11,1.04,5.65,1.67l-.43,4.79h-.51c-2.11-1.94-4.76-3.42-7.96-4.45-3.2-1.03-6.5-1.54-9.92-1.54-5.13,0-9.65,1.21-13.56,3.64-3.91,2.42-6.96,5.82-9.16,10.18-2.2,4.36-3.29,9.45-3.29,15.27s1.1,10.98,3.29,15.32c2.2,4.33,5.23,7.71,9.11,10.14,3.88,2.43,8.41,3.64,13.6,3.64,3.88,0,7.49-.63,10.82-1.88,3.34-1.25,6.06-2.79,8.17-4.62h.51Z"/>
        <path class="cls-2" d="M871.23,87.51V27.62h5.82v27.72h35.93v-27.72h5.82v59.89h-5.82v-30.12h-35.93v30.12h-5.82Z"/>
        <path class="cls-2" d="M941.04,87.51V27.62h5.82v59.89h-5.82Z"/>
        <path class="cls-2" d="M969.1,87.51V27.62h18.82c6.62,0,12.38,1.26,17.28,3.76,4.91,2.51,8.73,6,11.46,10.48,2.74,4.48,4.11,9.71,4.11,15.7s-1.37,11.22-4.11,15.7c-2.74,4.48-6.56,7.97-11.46,10.48-4.91,2.51-10.67,3.76-17.28,3.76h-18.82ZM987.93,29.67h-13v55.78h13c8.27,0,14.73-2.45,19.38-7.36,4.65-4.91,6.97-11.75,6.97-20.53s-2.33-15.63-6.97-20.53c-4.65-4.91-11.11-7.36-19.38-7.36Z"/>
      </g>
      <g id="Layer_1-2">
        <g>
          <path class="cls-1" d="M132.49,55.45c0,16.93-13.72,34.76-30.65,34.76-24.33,0-30.65-17.83-30.65-34.76s5.85-40.94,22.78-40.94,38.52,24.01,38.52,40.94h0Z"/>
          <path class="cls-1" d="M0,55.45c0,16.93,13.72,34.76,30.65,34.76,24.33,0,30.65-17.83,30.65-34.76s-5.85-40.93-22.77-40.93S0,38.52,0,55.45Z"/>
          <path class="cls-1" d="M34.09,70.38c7.4-5.65,17.04-7.25,26.87-7.98v.06c0,2.92,2.36,5.28,5.28,5.28s5.25-2.34,5.28-5.24c-.01,9.02-.46,27.68-6.93,36.1-13.86,18.01-33.76,19.94-41.4,12.3-7.64-7.64-7.13-26.77,10.91-40.53h0Z"/>
          <g class="cls-4">
            <path class="cls-3" d="M61,62.06h-.02v.37c0-.12,0-.25.02-.38h0Z"/>
            <path class="cls-3" d="M98.4,70.38c-7.4-5.65-17.04-7.25-26.87-7.98v.06c0,2.92-2.36,5.28-5.28,5.28s-5.25-2.34-5.28-5.24c.01,9.02.46,27.68,6.93,36.1,13.86,18.01,33.76,19.94,41.4,12.3,7.64-7.64,7.13-26.77-10.91-40.53h0Z"/>
          </g>
          <path class="cls-1" d="M92.59,31.14C88.09,13.21,79.38,0,66.43,0h-.03c-.05,0-.1,0-.15,0-.05,0-.1,0-.15,0h-.03c-12.95,0-21.65,13.21-26.16,31.14-5.11,20.35,5.72,29.37,21.09,30.96.19-2.74,2.47-4.9,5.26-4.9s5.07,2.16,5.26,4.9c15.36-1.59,26.18-10.61,21.07-30.95h0Z"/>
        </g>
      </g>
    </g>
  </g>
</svg>