<?xml version="1.0" encoding="UTF-8"?>
<svg id="Layer_2" xmlns="http://www.w3.org/2000/svg" viewBox="0 0 243.96 408.81">
  <defs>
    <style>
      .cls-1 {
        isolation: isolate;
      }

      .cls-1, .cls-2 {
        fill: #f5f6e7;
        fill-rule: evenodd;
      }

      .cls-1, .cls-3 {
        opacity: .8;
      }

      .cls-4 {
        fill: #254e48;
      }
    </style>
  </defs>
  <g id="Layer_1-2" data-name="Layer_1">
    <g>
      <g>
        <path class="cls-4" d="M79.92,279.97v-40.8c-.6,0-1.84.12-3.72.36l-11.76,1.5v-3.06h35.04v3.06l-11.76-1.5c-1.88-.24-3.12-.36-3.72-.36v40.8h-4.08Z"/>
        <path class="cls-4" d="M109.2,279.97v-42h4.08v19.44h25.2v-19.44h4.08v42h-4.08v-21.12h-25.2v21.12h-4.08Z"/>
        <path class="cls-4" d="M158.16,279.97v-42h18.3v2.94l-10.5-1.38c-1.84-.24-3.08-.36-3.72-.36v18.3c.52,0,1.76-.06,3.72-.18l9.84-.6v2.76l-9.84-.6c-1.96-.12-3.2-.18-3.72-.18v20.1c.72,0,1.98-.12,3.78-.36l10.62-1.38v2.94h-18.48Z"/>
        <path class="cls-4" d="M23.01,301.97h4.38l14.7,36.72h.36l9.6-23.76-5.22-12.96h4.38l14.64,36.6h.36l12.12-36.6h4.38l-17.28,42.84h-1.32l-11.22-27.9-11.28,27.9h-1.32l-17.28-42.84Z"/>
        <path class="cls-4" d="M92.07,343.97v-42h4.08v19.44h25.2v-19.44h4.08v42h-4.08v-21.12h-25.2v21.12h-4.08Z"/>
        <path class="cls-4" d="M141.03,343.97v-42h4.08v42h-4.08Z"/>
        <path class="cls-4" d="M170.31,343.97v-40.8c-.6,0-1.84.12-3.72.36l-11.76,1.5v-3.06h35.04v3.06l-11.76-1.5c-1.88-.24-3.12-.36-3.72-.36v40.8h-4.08Z"/>
        <path class="cls-4" d="M199.59,343.97v-42h18.3v2.94l-10.5-1.38c-1.84-.24-3.08-.36-3.72-.36v18.3c.52,0,1.76-.06,3.72-.18l9.84-.6v2.76l-9.84-.6c-1.96-.12-3.2-.18-3.72-.18v20.1c.72,0,1.98-.12,3.78-.36l10.62-1.38v2.94h-18.48Z"/>
        <path class="cls-4" d="M0,386.97c0-3.08.55-5.95,1.65-8.61,1.1-2.66,2.64-4.98,4.62-6.96s4.3-3.52,6.96-4.62c2.66-1.1,5.53-1.65,8.61-1.65s5.95.55,8.61,1.65c2.66,1.1,4.98,2.64,6.96,4.62s3.52,4.3,4.62,6.96c1.1,2.66,1.65,5.53,1.65,8.61s-.55,5.95-1.65,8.61c-1.1,2.66-2.64,4.98-4.62,6.96-1.98,1.98-4.3,3.52-6.96,4.62-2.66,1.1-5.53,1.65-8.61,1.65s-5.95-.55-8.61-1.65-4.98-2.64-6.96-4.62c-1.98-1.98-3.52-4.3-4.62-6.96-1.1-2.66-1.65-5.53-1.65-8.61ZM4.56,386.97c0,4.08.72,7.65,2.16,10.71,1.44,3.06,3.46,5.44,6.06,7.14,2.6,1.7,5.62,2.55,9.06,2.55s6.46-.85,9.06-2.55c2.6-1.7,4.62-4.09,6.06-7.17s2.16-6.64,2.16-10.68-.72-7.59-2.16-10.65c-1.44-3.06-3.46-5.45-6.06-7.17-2.6-1.72-5.62-2.58-9.06-2.58s-6.45.85-9.03,2.55-4.6,4.08-6.06,7.14c-1.46,3.06-2.19,6.63-2.19,10.71Z"/>
        <path class="cls-4" d="M56.28,365.97h8.04c4.24,0,7.53.89,9.87,2.67,2.34,1.78,3.51,4.27,3.51,7.47,0,2.48-.73,4.54-2.19,6.18-1.46,1.64-3.57,2.74-6.33,3.3v.36c2.64.52,4.8,1.76,6.48,3.72,1.68,1.96,2.94,4.38,3.78,7.26.76,2.64,1.51,4.69,2.25,6.15.74,1.46,1.56,2.51,2.46,3.15.9.64,1.97,1.1,3.21,1.38v.36h-2.46c-1.76,0-3.21-.32-4.35-.96-1.14-.64-2.11-1.72-2.91-3.24-.8-1.52-1.56-3.62-2.28-6.3-1.16-4.12-2.7-7.04-4.62-8.76-1.92-1.72-4.26-2.58-7.02-2.58h-.36v-1.08h.36c6.44,0,9.66-2.96,9.66-8.88s-3.02-8.76-9.06-8.76h-3.96v40.56h-4.08v-42Z"/>
        <path class="cls-4" d="M127.08,402.81l-.36,3.66c-1.12.48-2.48.9-4.08,1.26-1.6.36-3.22.63-4.86.81-1.64.18-3.1.27-4.38.27-3.24,0-6.24-.55-9-1.65-2.76-1.1-5.17-2.63-7.23-4.59-2.06-1.96-3.67-4.27-4.83-6.93-1.16-2.66-1.74-5.55-1.74-8.67s.58-6.01,1.74-8.67c1.16-2.66,2.77-4.97,4.83-6.93,2.06-1.96,4.47-3.49,7.23-4.59,2.76-1.1,5.76-1.65,9-1.65,1.32,0,2.8.1,4.44.3,1.64.2,3.24.47,4.8.81,1.56.34,2.88.73,3.96,1.17l-.3,3.36h-.36c-1.48-1.36-3.34-2.4-5.58-3.12-2.24-.72-4.56-1.08-6.96-1.08-3.6,0-6.77.85-9.51,2.55s-4.88,4.08-6.42,7.14c-1.54,3.06-2.31,6.63-2.31,10.71s.77,7.7,2.31,10.74c1.54,3.04,3.67,5.41,6.39,7.11,2.72,1.7,5.9,2.55,9.54,2.55,2.72,0,5.25-.44,7.59-1.32,2.34-.88,4.25-1.96,5.73-3.24h.36Z"/>
        <path class="cls-4" d="M139.08,407.97v-42h4.08v19.44h25.2v-19.44h4.08v42h-4.08v-21.12h-25.2v21.12h-4.08Z"/>
        <path class="cls-4" d="M188.04,407.97v-42h4.08v42h-4.08Z"/>
        <path class="cls-4" d="M207.72,407.97v-42h13.2c4.64,0,8.68.88,12.12,2.64,3.44,1.76,6.12,4.21,8.04,7.35,1.92,3.14,2.88,6.81,2.88,11.01s-.96,7.87-2.88,11.01c-1.92,3.14-4.6,5.59-8.04,7.35-3.44,1.76-7.48,2.64-12.12,2.64h-13.2ZM220.92,367.41h-9.12v39.12h9.12c5.8,0,10.33-1.72,13.59-5.16,3.26-3.44,4.89-8.24,4.89-14.4s-1.63-10.96-4.89-14.4-7.79-5.16-13.59-5.16Z"/>
      </g>
      <g>
        <circle class="cls-4" cx="121.98" cy="108" r="108"/>
        <g id="Layer_1-2">
          <g>
            <path class="cls-1" d="M193.97,105.7c0,18.4-14.91,37.77-33.31,37.77-26.44,0-33.31-19.38-33.31-37.77s6.36-44.49,24.76-44.49,41.86,26.1,41.86,44.49h0Z"/>
            <path class="cls-1" d="M49.98,105.7c0,18.4,14.91,37.77,33.31,37.77,26.44,0,33.31-19.38,33.31-37.77s-6.36-44.49-24.75-44.49-41.86,26.09-41.86,44.49Z"/>
            <path class="cls-1" d="M87.03,121.92c8.05-6.14,18.52-7.88,29.2-8.67v.07c0,3.17,2.57,5.74,5.74,5.74s5.71-2.55,5.74-5.7c-.02,9.8-.5,30.08-7.54,39.24-15.06,19.58-36.69,21.67-44.99,13.37-8.3-8.3-7.75-29.1,11.86-44.05h0Z"/>
            <g class="cls-3">
              <path class="cls-2" d="M116.27,112.88h-.02v.41c0-.14.01-.28.02-.41h0Z"/>
              <path class="cls-2" d="M156.92,121.92c-8.05-6.14-18.52-7.88-29.2-8.67v.07c0,3.17-2.57,5.74-5.74,5.74s-5.71-2.55-5.74-5.7c.02,9.8.5,30.08,7.54,39.24,15.06,19.58,36.69,21.67,44.99,13.37,8.3-8.3,7.75-29.1-11.86-44.05h0Z"/>
            </g>
            <path class="cls-1" d="M150.6,79.28c-4.89-19.49-14.35-33.84-28.42-33.84h-.03c-.06,0-.11,0-.17.01-.06,0-.11-.01-.17-.01h-.03c-14.07,0-23.53,14.36-28.43,33.84-5.56,22.12,6.22,31.92,22.92,33.64.21-2.98,2.69-5.33,5.72-5.33s5.51,2.35,5.72,5.33c16.69-1.73,28.46-11.53,22.9-33.64h0Z"/>
          </g>
        </g>
      </g>
    </g>
  </g>
</svg>