<?xml version="1.0" encoding="UTF-8"?>
<svg id="Layer_2" xmlns="http://www.w3.org/2000/svg" viewBox="0 0 517.42 216">
  <defs>
    <style>
      .cls-1 {
        isolation: isolate;
      }

      .cls-1, .cls-2, .cls-3 {
        fill: #f5f6e7;
      }

      .cls-1, .cls-3 {
        fill-rule: evenodd;
      }

      .cls-1, .cls-4 {
        opacity: .8;
      }
    </style>
  </defs>
  <g id="Layer_1-2" data-name="Layer_1">
    <g>
      <g id="Layer_1-2">
        <g>
          <path class="cls-1" d="M248.57,104.03c0,31.76-25.74,65.21-57.5,65.21-45.64,0-57.5-33.45-57.5-65.21s10.98-76.81,42.74-76.81,72.27,45.05,72.27,76.81h0Z"/>
          <path class="cls-1" d="M0,104.03c0,31.76,25.74,65.21,57.5,65.21,45.64,0,57.5-33.45,57.5-65.21s-10.97-76.8-42.73-76.8S0,72.27,0,104.03Z"/>
          <path class="cls-1" d="M63.96,132.04c13.89-10.59,31.96-13.6,50.41-14.97v.12c0,5.47,4.44,9.9,9.9,9.9s9.86-4.39,9.9-9.83c-.03,16.92-.85,51.93-13.01,67.74-26,33.79-63.33,37.4-77.67,23.07-14.33-14.33-13.37-50.23,20.48-76.04h0Z"/>
          <g class="cls-4">
            <path class="cls-3" d="M114.44,116.43h-.03v.7c0-.23.02-.47.03-.71h0Z"/>
            <path class="cls-3" d="M184.61,132.04c-13.89-10.59-31.96-13.6-50.41-14.97v.12c0,5.47-4.44,9.9-9.9,9.9s-9.86-4.39-9.9-9.83c.03,16.92.85,51.93,13.01,67.74,26,33.79,63.33,37.4,77.67,23.07,14.33-14.33,13.37-50.23-20.48-76.04h0Z"/>
          </g>
          <path class="cls-1" d="M173.7,58.42C165.26,24.78,148.93,0,124.64,0h-.06c-.09,0-.19,0-.28.02-.09,0-.19-.02-.28-.02h-.06c-24.29,0-40.62,24.78-49.07,58.42-9.59,38.19,10.74,55.1,39.57,58.08.36-5.14,4.64-9.2,9.87-9.2s9.5,4.06,9.87,9.19c28.81-2.99,49.13-19.9,39.54-58.07h0Z"/>
        </g>
      </g>
      <g>
        <path class="cls-2" d="M286.06,64.58V23.78c-.6,0-1.84.12-3.72.36l-11.76,1.5v-3.06h35.04v3.06l-11.76-1.5c-1.88-.24-3.12-.36-3.72-.36v40.8h-4.08Z"/>
        <path class="cls-2" d="M315.34,64.58V22.58h4.08v19.44h25.2v-19.44h4.08v42h-4.08v-21.12h-25.2v21.12h-4.08Z"/>
        <path class="cls-2" d="M364.29,64.58V22.58h18.3v2.94l-10.5-1.38c-1.84-.24-3.08-.36-3.72-.36v18.3c.52,0,1.76-.06,3.72-.18l9.84-.6v2.76l-9.84-.6c-1.96-.12-3.2-.18-3.72-.18v20.1c.72,0,1.98-.12,3.78-.36l10.62-1.38v2.94h-18.48Z"/>
        <path class="cls-2" d="M270.58,86.58h4.38l14.7,36.72h.36l9.6-23.76-5.22-12.96h4.38l14.64,36.6h.36l12.12-36.6h4.38l-17.28,42.84h-1.32l-11.22-27.9-11.28,27.9h-1.32l-17.28-42.84Z"/>
        <path class="cls-2" d="M339.63,128.58v-42h4.08v19.44h25.2v-19.44h4.08v42h-4.08v-21.12h-25.2v21.12h-4.08Z"/>
        <path class="cls-2" d="M388.6,128.58v-42h4.08v42h-4.08Z"/>
        <path class="cls-2" d="M417.87,128.58v-40.8c-.6,0-1.84.12-3.72.36l-11.76,1.5v-3.06h35.04v3.06l-11.76-1.5c-1.88-.24-3.12-.36-3.72-.36v40.8h-4.08Z"/>
        <path class="cls-2" d="M447.15,128.58v-42h18.3v2.94l-10.5-1.38c-1.84-.24-3.08-.36-3.72-.36v18.3c.52,0,1.76-.06,3.72-.18l9.84-.6v2.76l-9.84-.6c-1.96-.12-3.2-.18-3.72-.18v20.1c.72,0,1.98-.12,3.78-.36l10.62-1.38v2.94h-18.48Z"/>
        <path class="cls-2" d="M273.45,171.58c0-3.08.55-5.95,1.65-8.61s2.64-4.98,4.62-6.96,4.3-3.52,6.96-4.62c2.66-1.1,5.53-1.65,8.61-1.65s5.95.55,8.61,1.65c2.66,1.1,4.98,2.64,6.96,4.62,1.98,1.98,3.52,4.3,4.62,6.96,1.1,2.66,1.65,5.53,1.65,8.61s-.55,5.95-1.65,8.61c-1.1,2.66-2.64,4.98-4.62,6.96-1.98,1.98-4.3,3.52-6.96,4.62-2.66,1.1-5.53,1.65-8.61,1.65s-5.95-.55-8.61-1.65-4.98-2.64-6.96-4.62-3.52-4.3-4.62-6.96c-1.1-2.66-1.65-5.53-1.65-8.61ZM278.02,171.58c0,4.08.72,7.65,2.16,10.71,1.44,3.06,3.46,5.44,6.06,7.14,2.6,1.7,5.62,2.55,9.06,2.55s6.46-.85,9.06-2.55,4.62-4.09,6.06-7.17c1.44-3.08,2.16-6.64,2.16-10.68s-.72-7.59-2.16-10.65c-1.44-3.06-3.46-5.45-6.06-7.17s-5.62-2.58-9.06-2.58-6.45.85-9.03,2.55c-2.58,1.7-4.6,4.08-6.06,7.14-1.46,3.06-2.19,6.63-2.19,10.71Z"/>
        <path class="cls-2" d="M329.73,150.58h8.04c4.24,0,7.53.89,9.87,2.67,2.34,1.78,3.51,4.27,3.51,7.47,0,2.48-.73,4.54-2.19,6.18-1.46,1.64-3.57,2.74-6.33,3.3v.36c2.64.52,4.8,1.76,6.48,3.72,1.68,1.96,2.94,4.38,3.78,7.26.76,2.64,1.51,4.69,2.25,6.15.74,1.46,1.56,2.51,2.46,3.15.9.64,1.97,1.1,3.21,1.38v.36h-2.46c-1.76,0-3.21-.32-4.35-.96-1.14-.64-2.11-1.72-2.91-3.24-.8-1.52-1.56-3.62-2.28-6.3-1.16-4.12-2.7-7.04-4.62-8.76-1.92-1.72-4.26-2.58-7.02-2.58h-.36v-1.08h.36c6.44,0,9.66-2.96,9.66-8.88s-3.02-8.76-9.06-8.76h-3.96v40.56h-4.08v-42Z"/>
        <path class="cls-2" d="M400.54,187.42l-.36,3.66c-1.12.48-2.48.9-4.08,1.26-1.6.36-3.22.63-4.86.81s-3.1.27-4.38.27c-3.24,0-6.24-.55-9-1.65s-5.17-2.63-7.23-4.59c-2.06-1.96-3.67-4.27-4.83-6.93-1.16-2.66-1.74-5.55-1.74-8.67s.58-6.01,1.74-8.67c1.16-2.66,2.77-4.97,4.83-6.93,2.06-1.96,4.47-3.49,7.23-4.59,2.76-1.1,5.76-1.65,9-1.65,1.32,0,2.8.1,4.44.3,1.64.2,3.24.47,4.8.81,1.56.34,2.88.73,3.96,1.17l-.3,3.36h-.36c-1.48-1.36-3.34-2.4-5.58-3.12s-4.56-1.08-6.96-1.08c-3.6,0-6.77.85-9.51,2.55-2.74,1.7-4.88,4.08-6.42,7.14-1.54,3.06-2.31,6.63-2.31,10.71s.77,7.7,2.31,10.74c1.54,3.04,3.67,5.41,6.39,7.11,2.72,1.7,5.9,2.55,9.54,2.55,2.72,0,5.25-.44,7.59-1.32,2.34-.88,4.25-1.96,5.73-3.24h.36Z"/>
        <path class="cls-2" d="M412.53,192.58v-42h4.08v19.44h25.2v-19.44h4.08v42h-4.08v-21.12h-25.2v21.12h-4.08Z"/>
        <path class="cls-2" d="M461.5,192.58v-42h4.08v42h-4.08Z"/>
        <path class="cls-2" d="M481.18,192.58v-42h13.2c4.64,0,8.68.88,12.12,2.64,3.44,1.76,6.12,4.21,8.04,7.35,1.92,3.14,2.88,6.81,2.88,11.01s-.96,7.87-2.88,11.01c-1.92,3.14-4.6,5.59-8.04,7.35-3.44,1.76-7.48,2.64-12.12,2.64h-13.2ZM494.37,152.02h-9.12v39.12h9.12c5.8,0,10.33-1.72,13.59-5.16,3.26-3.44,4.89-8.24,4.89-14.4s-1.63-10.96-4.89-14.4-7.79-5.16-13.59-5.16Z"/>
      </g>
    </g>
  </g>
</svg>